<svg width="24" height="25" viewBox="0 0 24 25" fill="none" xmlns="http://www.w3.org/2000/svg">
<g clip-path="url(#clip0_412_516)">
<path d="M23.6227 12.2949C23.5767 12.2949 23.5537 12.303 23.5308 12.3139C23.5239 12.3166 23.5078 12.3166 23.4917 12.3166C23.4664 12.3003 23.4342 12.2813 23.3813 12.284C23.3353 12.284 23.3284 12.2813 23.2962 12.2786C23.2641 12.2269 23.2204 12.1834 23.1606 12.1779C23.156 12.1779 23.1514 12.1779 23.1468 12.1779C23.0847 12.1779 23.0365 12.2187 22.9951 12.2677C22.9652 12.2731 22.9376 12.2867 22.9146 12.303C22.8801 12.2622 22.8387 12.2269 22.7836 12.2296C22.7514 12.2296 22.7238 12.2405 22.6962 12.2568C22.6594 12.1943 22.6111 12.1426 22.5468 12.1426C22.4709 12.1426 22.4088 12.216 22.3628 12.2949C22.3559 12.2949 22.3467 12.2922 22.3375 12.2894C22.3008 12.2296 22.2525 12.1807 22.1835 12.1807C22.1237 12.1807 22.1237 12.1752 22.0639 12.1752C22.018 12.1752 21.9766 12.2024 21.9421 12.2405C21.9099 12.2024 21.8708 12.1725 21.8225 12.1752C21.7766 12.1752 21.7352 12.2051 21.6984 12.2432C21.6662 12.2051 21.6294 12.1779 21.5811 12.1779C21.5375 12.1779 21.5007 12.197 21.4685 12.2269C21.4363 12.1861 21.3949 12.1535 21.342 12.1562C21.2754 12.1562 21.2202 12.2133 21.1765 12.2758C21.1535 12.265 21.1282 12.2568 21.096 12.2568C21.0822 12.2568 21.073 12.2568 21.0662 12.2514C21.0432 12.2432 21.0225 12.235 20.9765 12.2378C20.9305 12.2378 20.8914 12.2622 20.8569 12.2922C20.8247 12.2568 20.7857 12.2296 20.7374 12.2323C20.6914 12.2323 20.6615 12.2459 20.6339 12.2595C20.6293 12.2595 20.6247 12.265 20.6132 12.265C20.5764 12.265 20.5443 12.2813 20.5144 12.303C20.4799 12.2486 20.4339 12.2051 20.3764 12.2079C20.3534 12.2079 20.3419 12.2079 20.3304 12.2051C20.3121 12.2051 20.2937 12.1997 20.2569 12.1997C20.2086 12.1997 20.1787 12.2133 20.1511 12.2269C20.1465 12.2269 20.1419 12.2323 20.1327 12.2323C20.1074 12.2323 20.0959 12.2323 20.0844 12.2323C20.0661 12.2323 20.0477 12.2269 20.0132 12.2296C19.9626 12.2296 19.9189 12.2622 19.8821 12.303C19.8522 12.2704 19.8155 12.2486 19.7718 12.2486C19.7327 12.2486 19.6959 12.2677 19.666 12.2976C19.6315 12.2459 19.5878 12.2079 19.5327 12.2079C19.5166 12.2079 19.5074 12.2079 19.4982 12.2024C19.4775 12.197 19.4568 12.1888 19.4131 12.1915C19.3441 12.1915 19.289 12.2459 19.243 12.3139H19.1648C19.1372 12.3139 19.1142 12.3221 19.0912 12.3357C19.0522 12.2568 18.9993 12.1915 18.9303 12.1943C18.8498 12.1943 18.7832 12.2813 18.7326 12.3765C18.6958 12.3058 18.6429 12.235 18.5671 12.2378C18.5211 12.2378 18.482 12.2622 18.4475 12.2976C18.4153 12.2568 18.3762 12.2296 18.3257 12.2323C18.3119 12.2323 18.3027 12.2323 18.2958 12.2269C18.2728 12.2187 18.2521 12.2106 18.2061 12.2106C18.1279 12.2106 18.0613 12.2949 18.0107 12.3874C17.9969 12.3846 17.9831 12.3819 17.967 12.3792C17.9371 12.3493 17.9049 12.3302 17.8543 12.3194C17.8222 12.284 17.7808 12.2514 17.721 12.2541C17.6727 12.2541 17.629 12.284 17.5923 12.3248C17.5624 12.2894 17.5233 12.2622 17.4773 12.265C17.4382 12.265 17.4198 12.2704 17.3991 12.2731C17.3899 12.2731 17.3784 12.2786 17.3577 12.2786C17.3302 12.2568 17.2957 12.235 17.2382 12.235C17.183 12.235 17.1462 12.2595 17.114 12.2786C17.0658 12.2786 17.0221 12.3085 16.9853 12.3466C16.9554 12.3139 16.9186 12.2894 16.8726 12.2894C16.8198 12.2894 16.783 12.3112 16.7462 12.3411C16.7094 12.3411 16.691 12.3466 16.6726 12.3493C16.6611 12.3493 16.6496 12.3547 16.6289 12.3547C16.5876 12.3547 16.5646 12.3629 16.5439 12.3683C16.5347 12.371 16.5255 12.3738 16.5071 12.3738C16.4887 12.3738 16.4795 12.3738 16.468 12.3683C16.4473 12.3629 16.4266 12.3574 16.3875 12.3602C16.3416 12.3602 16.3117 12.3738 16.2841 12.3874C16.2795 12.3874 16.2749 12.3928 16.2657 12.3928C16.2519 12.3928 16.245 12.3928 16.2381 12.3874C16.2174 12.3792 16.1944 12.371 16.153 12.371C16.1254 12.3466 16.0933 12.3248 16.0496 12.3221C16.0174 12.284 15.976 12.2514 15.9162 12.2514C15.8565 12.2514 15.8082 12.2922 15.7645 12.3466C15.7415 12.3302 15.7139 12.3194 15.684 12.3194C15.6518 12.2867 15.6128 12.2595 15.5553 12.2595C15.5001 12.2595 15.461 12.2867 15.4242 12.3166C15.3805 12.3194 15.3438 12.3466 15.3093 12.3792C15.2771 12.3411 15.238 12.3112 15.1897 12.3139H15.0702C15.0127 12.3166 14.969 12.3493 14.9299 12.3928C14.9115 12.3819 14.8908 12.371 14.8633 12.3656C14.8265 12.3112 14.7782 12.2622 14.7115 12.2622C14.6563 12.2622 14.6081 12.303 14.5667 12.3547C14.5391 12.3275 14.5069 12.3112 14.4678 12.3112C14.4103 12.3112 14.369 12.3411 14.3322 12.3765C14.2862 12.3792 14.254 12.3982 14.2218 12.4173C14.1919 12.4173 14.1666 12.4254 14.1436 12.4363C14.1069 12.371 14.0563 12.3112 13.9873 12.3139C13.9436 12.3139 13.916 12.3248 13.893 12.3357C13.8862 12.3384 13.8793 12.3411 13.8655 12.3411C13.8149 12.3411 13.7827 12.3574 13.7551 12.3738H13.7436C13.6907 12.3792 13.6516 12.4037 13.6149 12.4336C13.5873 12.4145 13.5551 12.3955 13.5022 12.3955C13.4608 12.3955 13.4309 12.4091 13.401 12.4281C13.3666 12.3819 13.3229 12.3466 13.2654 12.3466C13.2125 12.3466 13.1803 12.3656 13.1504 12.3846H13.1413C13.0838 12.3874 13.0424 12.4173 13.0033 12.4526C12.978 12.4526 12.9596 12.4581 12.9435 12.4635C12.9067 12.3955 12.8539 12.3302 12.7826 12.333C12.7412 12.333 12.7044 12.3547 12.6699 12.3874C12.6355 12.3411 12.5941 12.3058 12.5435 12.3058C12.4745 12.3058 12.4147 12.3683 12.3688 12.4417C12.3596 12.4363 12.3504 12.4336 12.3412 12.4309C12.3044 12.3656 12.2515 12.3085 12.1825 12.3112C12.1182 12.3112 12.0653 12.3629 12.0216 12.4254C11.9986 12.4091 11.971 12.4009 11.9365 12.4009C11.8837 12.4009 11.8492 12.4227 11.8147 12.4417C11.771 12.4417 11.748 12.4499 11.725 12.4581C11.6882 12.4037 11.64 12.3574 11.5779 12.3602C11.525 12.3602 11.4905 12.3792 11.4629 12.3982C11.4307 12.3683 11.394 12.3411 11.3365 12.3411C11.2905 12.3411 11.2606 12.3547 11.2353 12.3656C11.2307 12.3656 11.2261 12.371 11.2146 12.371C11.187 12.3493 11.1526 12.3275 11.0951 12.3275C11.0146 12.3275 10.9502 12.4091 10.9043 12.4853C10.8974 12.488 10.8905 12.4907 10.8813 12.4961C10.8445 12.4336 10.7962 12.3792 10.7295 12.3819C10.6812 12.3819 10.6399 12.4064 10.6054 12.439C10.5755 12.4091 10.5387 12.3846 10.4881 12.3846C10.4306 12.3846 10.3847 12.4227 10.3433 12.4717C10.3157 12.4499 10.2858 12.4363 10.2444 12.4363C10.2329 12.4363 10.2283 12.4363 10.2214 12.4309C10.1984 12.42 10.1709 12.4091 10.1249 12.4118C10.0605 12.4118 10.0053 12.4608 9.96394 12.5179C9.94095 12.5179 9.92945 12.5152 9.89726 12.5152C9.86508 12.4798 9.82599 12.4472 9.77081 12.4445C9.73863 12.4145 9.70184 12.3874 9.64437 12.3901C9.59379 12.3901 9.557 12.4118 9.52251 12.4363C9.49263 12.4118 9.45584 12.3874 9.40296 12.3901C9.32939 12.3901 9.26732 12.4608 9.22363 12.5288C9.22363 12.5288 9.21904 12.5288 9.21674 12.5288C9.20294 12.5288 9.18685 12.5288 9.15926 12.5288C9.13167 12.5043 9.09719 12.4825 9.0512 12.4771C9.01902 12.4417 8.97763 12.4118 8.92016 12.4118C8.87877 12.4118 8.84429 12.4281 8.8144 12.4526C8.77991 12.4064 8.73853 12.3738 8.68335 12.3738C8.63967 12.3738 8.60059 12.4009 8.5638 12.439C8.53161 12.3955 8.49253 12.3629 8.44195 12.3656C8.37528 12.3656 8.3201 12.42 8.27412 12.4825C8.27412 12.4825 8.27412 12.4825 8.27182 12.4825C8.25343 12.4798 8.23274 12.4744 8.19365 12.4771C8.14767 12.4771 8.12008 12.4907 8.09249 12.5016C8.08789 12.5016 8.081 12.507 8.0695 12.507C8.02582 12.507 7.99823 12.5179 7.97294 12.5288C7.96604 12.5315 7.95915 12.5342 7.94765 12.5342C7.92696 12.5342 7.90627 12.5369 7.89017 12.5451C7.85109 12.4526 7.79361 12.3683 7.71545 12.3738C7.63958 12.3738 7.5752 12.4526 7.52462 12.5451C7.51313 12.5424 7.50163 12.5369 7.49014 12.5369C7.45565 12.4934 7.41197 12.4553 7.34989 12.4553C7.29242 12.4553 7.29012 12.4499 7.23724 12.4499C7.20505 12.42 7.16827 12.3928 7.11079 12.3955C7.05331 12.3955 7.01193 12.4254 6.97285 12.4635C6.94756 12.4635 6.93376 12.4635 6.91997 12.4662C6.90617 12.4662 6.89238 12.4662 6.86709 12.4689C6.8487 12.4689 6.8395 12.4689 6.8303 12.4635C6.80961 12.4581 6.78892 12.4526 6.74754 12.4526C6.73834 12.4526 6.73374 12.4526 6.72914 12.4472C6.70385 12.4336 6.67627 12.4227 6.62798 12.4227C6.5912 12.4227 6.57051 12.4281 6.55211 12.4309C6.54062 12.4309 6.52912 12.4363 6.50613 12.4363C6.43716 12.4363 6.37968 12.4989 6.3337 12.5641C6.31301 12.556 6.28772 12.5478 6.25783 12.5478C6.23484 12.5478 6.21415 12.5505 6.19806 12.556C6.15897 12.4689 6.1015 12.3874 6.02563 12.3928C5.96585 12.3928 5.92217 12.4281 5.88079 12.4689C5.8509 12.4744 5.82331 12.488 5.79802 12.5097C5.76353 12.4553 5.71755 12.4145 5.66008 12.4145C5.5934 12.4145 5.53593 12.4744 5.49224 12.5369C5.47155 12.5261 5.44626 12.5179 5.41178 12.5206C5.3635 12.5206 5.32441 12.5451 5.28993 12.575C5.26004 12.5424 5.22095 12.5179 5.17037 12.5179C5.11979 12.5179 5.07841 12.5451 5.04163 12.5805C5.02323 12.5614 5.00024 12.5478 4.97495 12.5397C4.93817 12.4744 4.88529 12.4173 4.81632 12.42C4.75884 12.42 4.71746 12.4499 4.67837 12.4853C4.64848 12.488 4.6209 12.5016 4.59561 12.5233C4.56112 12.4662 4.51284 12.4227 4.45536 12.4227C4.40708 12.4227 4.3657 12.4526 4.33121 12.4907C4.30132 12.4553 4.26224 12.4281 4.21396 12.4281H4.09441C4.02544 12.4336 3.97026 12.4853 3.92658 12.5451C3.89209 12.556 3.8622 12.5804 3.83461 12.6076C3.80702 12.5832 3.77714 12.5641 3.73575 12.5614C3.70357 12.5288 3.66448 12.5016 3.60701 12.5016L3.48515 12.507C3.42768 12.507 3.3771 12.5505 3.33571 12.6022C3.30813 12.5805 3.27824 12.5641 3.23915 12.5669C3.20467 12.5669 3.17478 12.5805 3.14719 12.5995C3.11041 12.5397 3.06442 12.4907 3.00235 12.4934C2.95867 12.4934 2.91958 12.5179 2.8851 12.5533C2.85291 12.507 2.80923 12.4771 2.76095 12.4771C2.68278 12.4771 2.6207 12.5533 2.57472 12.6267C2.57012 12.6267 2.56323 12.6294 2.55863 12.6321C2.52184 12.5614 2.46896 12.4961 2.39539 12.4961C2.33792 12.4961 2.28504 12.5424 2.24366 12.5968C2.21837 12.575 2.18618 12.5614 2.14939 12.5614C2.09192 12.5614 2.04594 12.5995 2.00915 12.6403C1.98156 12.6185 1.94937 12.6022 1.90569 12.6049C1.86431 12.6049 1.84362 12.6104 1.82293 12.6185C1.81373 12.6212 1.80453 12.624 1.78384 12.624C1.76545 12.624 1.75855 12.624 1.74936 12.6185C1.72866 12.6131 1.70567 12.6049 1.66429 12.6076C1.65279 12.6076 1.6459 12.6076 1.639 12.6022C1.61601 12.5913 1.58842 12.5832 1.54474 12.5832H1.46197C1.42519 12.5261 1.37691 12.4744 1.30793 12.4744C1.25046 12.4744 1.20218 12.5125 1.16079 12.5614C1.1355 12.5424 1.10332 12.5288 1.06193 12.5288C0.974569 12.5288 0.905597 12.6267 0.859615 12.7083C0.719372 12.8252 0.595222 13.2549 0.565334 13.7662C0.530848 14.3537 0.632007 14.8296 0.792942 14.846C0.795241 14.846 0.799839 14.846 0.802139 14.846C0.866513 14.846 0.923989 14.7916 0.965373 14.729C0.988363 14.7426 1.01595 14.7535 1.05044 14.7508C1.09642 14.7508 1.1378 14.7263 1.17229 14.6882C1.20448 14.7236 1.24356 14.7508 1.29184 14.7508H1.41369C1.42519 14.7508 1.43208 14.7508 1.43898 14.7535C1.46197 14.7644 1.48956 14.7725 1.53324 14.7725C1.55164 14.7725 1.55853 14.7725 1.56773 14.778C1.58842 14.7834 1.60911 14.7916 1.65279 14.7888C1.69418 14.7888 1.71487 14.7834 1.73556 14.7752C1.74246 14.7752 1.75165 14.7698 1.76315 14.7698C1.79534 14.8024 1.83442 14.8269 1.8896 14.8269C1.94018 14.8269 1.98386 14.797 2.01835 14.7616C2.04823 14.7916 2.08502 14.816 2.1333 14.8133C2.17928 14.8133 2.22067 14.7861 2.25745 14.7481C2.28964 14.7888 2.32872 14.816 2.377 14.8133C2.42298 14.8133 2.45287 14.7997 2.47816 14.7861C2.48276 14.7861 2.48966 14.7807 2.49885 14.7807C2.54024 14.7807 2.57702 14.7589 2.60921 14.729C2.64369 14.778 2.68738 14.816 2.74026 14.8133C2.78624 14.8133 2.82762 14.7861 2.86211 14.7481C2.89429 14.7888 2.93338 14.816 2.98166 14.816C3.02994 14.816 3.06902 14.7916 3.10581 14.7589C3.1357 14.7916 3.17478 14.816 3.22536 14.816C3.30123 14.816 3.3633 14.7426 3.40929 14.6719H3.46446C3.49205 14.6991 3.52424 14.7236 3.56792 14.729C3.60241 14.7725 3.64609 14.8106 3.70816 14.8106C3.77484 14.8106 3.82772 14.7589 3.8714 14.7018C3.91968 14.6882 3.96106 14.6447 3.99785 14.5985H4.03003C4.06452 14.6637 4.1174 14.7317 4.19327 14.729C4.23465 14.729 4.27144 14.7073 4.30362 14.6773C4.33811 14.7263 4.38179 14.7616 4.43467 14.7616C4.50364 14.7616 4.55882 14.7073 4.6025 14.6474C4.62549 14.642 4.64389 14.6311 4.66458 14.6175C4.69676 14.661 4.73585 14.6964 4.78413 14.7018C4.81632 14.7399 4.8577 14.7698 4.91748 14.7698C4.96576 14.7698 5.00714 14.7453 5.04163 14.7127C5.07151 14.7426 5.1106 14.7671 5.15888 14.7671C5.21406 14.7671 5.25544 14.7372 5.29452 14.7018C5.31981 14.7209 5.3543 14.7372 5.40258 14.7372C5.44626 14.7372 5.48305 14.7127 5.51753 14.6801C5.54972 14.7263 5.5934 14.7589 5.64398 14.7562C5.71295 14.7562 5.77043 14.6991 5.81641 14.6338C5.82791 14.6311 5.8394 14.6257 5.8486 14.6202C5.88538 14.6937 5.93826 14.7508 6.00494 14.7535C6.04862 14.7535 6.07851 14.7426 6.1015 14.7317C6.10839 14.729 6.11299 14.7263 6.13139 14.729C6.15897 14.7481 6.19116 14.7671 6.24404 14.7671C6.32221 14.7671 6.38658 14.6882 6.43256 14.6093C6.43946 14.6093 6.44406 14.6093 6.44866 14.6066C6.46015 14.6066 6.47165 14.6012 6.49464 14.6012C6.50383 14.6012 6.50843 14.6012 6.51303 14.6066C6.53832 14.6202 6.56591 14.6311 6.61419 14.6311C6.63258 14.6311 6.64178 14.6311 6.65098 14.6365C6.67167 14.642 6.69236 14.6474 6.73374 14.6474C6.76823 14.6474 6.78432 14.6474 6.80041 14.6447C6.81421 14.6447 6.828 14.6447 6.85329 14.642C6.90387 14.642 6.94526 14.6175 6.97974 14.5849C7.00963 14.6093 7.04412 14.6311 7.0947 14.6311C7.14528 14.6311 7.15217 14.6338 7.19126 14.6365C7.22344 14.6773 7.26483 14.7127 7.3269 14.7154C7.35679 14.7426 7.39358 14.7644 7.44875 14.7644C7.49473 14.7644 7.53612 14.7345 7.5729 14.6937C7.60509 14.7372 7.64417 14.7644 7.69016 14.7644C7.74533 14.7644 7.78212 14.7399 7.81431 14.7181C7.85799 14.7181 7.88558 14.7073 7.91087 14.6964C7.91776 14.6937 7.92466 14.6909 7.93616 14.6909C7.98214 14.6909 8.00973 14.6773 8.03731 14.6665C8.04191 14.6665 8.04881 14.661 8.06031 14.661C8.081 14.661 8.09249 14.661 8.10399 14.6637C8.12238 14.6665 8.14307 14.6719 8.18216 14.6692C8.21664 14.6692 8.24883 14.6556 8.27642 14.6311C8.3132 14.6909 8.35918 14.7399 8.41896 14.7372C8.47644 14.7372 8.52702 14.6909 8.5707 14.6338C8.59599 14.6556 8.62818 14.6692 8.66496 14.6692C8.71554 14.6692 8.75692 14.642 8.79141 14.6093C8.819 14.6365 8.85348 14.6556 8.89947 14.6583C8.93165 14.6855 8.96844 14.71 9.02362 14.71C9.0512 14.71 9.065 14.71 9.07879 14.71C9.09489 14.71 9.11098 14.71 9.14317 14.71C9.20754 14.71 9.26272 14.6583 9.3041 14.5985C9.32709 14.6121 9.35468 14.6229 9.38917 14.6202C9.43745 14.6202 9.47423 14.6012 9.50872 14.574C9.53631 14.5985 9.5662 14.6202 9.60988 14.6229C9.64207 14.661 9.68575 14.6964 9.74552 14.6964C9.8053 14.6964 9.8053 14.7018 9.86508 14.7018C9.92715 14.7018 9.98003 14.6556 10.0214 14.6012C10.0398 14.6093 10.0628 14.6175 10.095 14.6175C10.1272 14.6529 10.1686 14.6855 10.2283 14.6855C10.2835 14.6855 10.3295 14.6501 10.3686 14.6012C10.3962 14.6257 10.4283 14.6393 10.4697 14.6393C10.5042 14.6393 10.5364 14.6257 10.564 14.6066C10.5985 14.6637 10.6468 14.71 10.7065 14.7073C10.7594 14.7073 10.7985 14.6828 10.8376 14.6529C10.902 14.6474 10.9548 14.593 10.9985 14.5332C11.0192 14.5441 11.0445 14.5522 11.079 14.5522C11.125 14.5522 11.1549 14.5386 11.1801 14.5278C11.1824 14.5278 11.187 14.525 11.1916 14.5223C11.2238 14.555 11.2629 14.5821 11.3181 14.5794C11.3595 14.5794 11.3894 14.5686 11.4124 14.555C11.4468 14.6066 11.4928 14.6474 11.5549 14.6474C11.6009 14.6474 11.6239 14.6365 11.6469 14.6284C11.6538 14.6257 11.6607 14.6229 11.6767 14.6229C11.725 14.6229 11.7572 14.6066 11.7894 14.5876C11.8216 14.6202 11.8607 14.6501 11.9158 14.6474C11.9687 14.6474 12.017 14.6093 12.0561 14.5604C12.0837 14.5849 12.1136 14.6039 12.1504 14.6066C12.1825 14.6365 12.2193 14.661 12.2768 14.661C12.3228 14.661 12.3642 14.6338 12.3987 14.593C12.4308 14.6338 12.4699 14.6637 12.5159 14.661C12.5642 14.661 12.6056 14.6311 12.6424 14.5903C12.6722 14.6257 12.7113 14.6529 12.7573 14.6501C12.801 14.6501 12.8217 14.642 12.8447 14.6338C12.8539 14.6311 12.8631 14.6284 12.8792 14.6284C12.9366 14.6284 12.978 14.5985 13.0171 14.5631C13.0516 14.5631 13.0769 14.5495 13.0999 14.5386C13.1344 14.5876 13.1803 14.6284 13.2401 14.6257C13.293 14.6257 13.3298 14.6012 13.3666 14.574C13.3941 14.593 13.4263 14.6121 13.4815 14.6121C13.5367 14.6121 13.5781 14.5849 13.6149 14.5522C13.6608 14.5522 13.6907 14.5332 13.716 14.5196H13.7275C13.7551 14.5142 13.7781 14.5114 13.7965 14.506C13.8333 14.5767 13.8862 14.6474 13.9597 14.6447C14.0126 14.6447 14.0494 14.6202 14.0862 14.593C14.1367 14.593 14.1712 14.5713 14.2057 14.5522C14.2425 14.5522 14.2747 14.5386 14.3023 14.5196C14.3368 14.574 14.3828 14.6121 14.4425 14.6121C14.5023 14.6121 14.5552 14.5658 14.5989 14.5033C14.6242 14.525 14.654 14.5359 14.6908 14.5359C14.7184 14.555 14.7529 14.5767 14.8081 14.5767C14.8702 14.5767 14.9184 14.5386 14.9575 14.4897H15.0012C15.0357 14.5577 15.0886 14.6284 15.1667 14.6257C15.2449 14.6257 15.307 14.5495 15.3507 14.4788C15.3737 14.4706 15.3943 14.457 15.415 14.4407C15.4449 14.4679 15.4771 14.4897 15.5254 14.4924C15.5576 14.5223 15.5944 14.5495 15.6518 14.5468C15.7093 14.5468 15.7553 14.5087 15.7967 14.4598C15.822 14.4788 15.8519 14.4951 15.8909 14.4951C15.9208 14.5223 15.9576 14.5468 16.0128 14.5441C16.0266 14.5441 16.0335 14.5441 16.0404 14.5495C16.0634 14.5577 16.0864 14.5658 16.1323 14.5658C16.1783 14.5658 16.2082 14.5522 16.2358 14.5386C16.2404 14.5386 16.245 14.5332 16.2542 14.5332C16.2726 14.5332 16.2818 14.5332 16.2933 14.5386C16.314 14.5441 16.3347 14.5495 16.3737 14.5468C16.4151 14.5468 16.4381 14.5386 16.4588 14.5332C16.468 14.5305 16.4772 14.5278 16.4956 14.5278C16.5347 14.5278 16.5531 14.5223 16.5715 14.5196C16.583 14.5196 16.5945 14.5142 16.6151 14.5142C16.6519 14.5142 16.6818 14.5033 16.7094 14.4842C16.7439 14.5359 16.7899 14.5794 16.852 14.5767C16.9232 14.5767 16.983 14.5142 17.0313 14.4407C17.0589 14.4326 17.0819 14.419 17.1049 14.4054C17.1324 14.4271 17.1669 14.4489 17.2221 14.4489C17.2566 14.4489 17.275 14.4462 17.2934 14.4407C17.3302 14.5087 17.383 14.5767 17.4566 14.574C17.5187 14.574 17.5739 14.5223 17.6152 14.4625C17.6359 14.4761 17.6612 14.487 17.6888 14.487C17.721 14.5196 17.7601 14.5495 17.8245 14.5495C17.8498 14.5658 17.8842 14.5849 17.9348 14.5849C18.0176 14.5849 18.0843 14.4951 18.1371 14.3945C18.1762 14.4652 18.2268 14.525 18.3004 14.5223C18.3418 14.5223 18.3785 14.5006 18.413 14.4706C18.4452 14.5142 18.4889 14.5468 18.5395 14.5468C18.5602 14.5468 18.5694 14.5468 18.5786 14.5522C18.5992 14.5577 18.6176 14.5631 18.659 14.5604C18.705 14.5604 18.7464 14.5305 18.7809 14.4897C18.8131 14.5305 18.8521 14.5604 18.8981 14.5604C18.9579 14.5604 19.0039 14.525 19.043 14.4815H19.1441C19.2108 14.4815 19.266 14.4271 19.3097 14.3646C19.312 14.3646 19.3166 14.3646 19.3189 14.3673C19.3579 14.457 19.4154 14.5495 19.5005 14.5495C19.5511 14.5495 19.5947 14.5169 19.6315 14.4788C19.6614 14.5114 19.6982 14.5332 19.7442 14.5332C19.8178 14.5332 19.8775 14.4652 19.9212 14.3999C19.9396 14.3999 19.958 14.4054 19.9925 14.4026C20.0408 14.4026 20.0707 14.3891 20.0982 14.3755C20.1028 14.3755 20.1074 14.37 20.1166 14.37C20.1304 14.37 20.1396 14.37 20.1488 14.37C20.158 14.37 20.1649 14.37 20.1741 14.3727C20.2109 14.4543 20.2684 14.5386 20.3488 14.5359C20.4155 14.5359 20.4684 14.487 20.5121 14.4298C20.5374 14.4244 20.5581 14.4162 20.5741 14.4081C20.6086 14.4543 20.6523 14.4897 20.7121 14.4897C20.7719 14.4897 20.8179 14.4516 20.8592 14.4081C20.8615 14.4081 20.8661 14.4081 20.8684 14.4108C20.8891 14.419 20.9098 14.4271 20.9535 14.4244C20.9834 14.4516 21.0202 14.4734 21.0753 14.4734C21.1282 14.4734 21.1765 14.4353 21.2156 14.3891C21.2432 14.4162 21.2777 14.4353 21.319 14.4353C21.3535 14.4353 21.3857 14.4217 21.4133 14.4026C21.4478 14.4598 21.4961 14.506 21.5559 14.5033C21.6041 14.5033 21.6478 14.4706 21.6846 14.4298C21.7145 14.4652 21.7513 14.4897 21.7973 14.487C21.8708 14.487 21.9329 14.4162 21.9766 14.3483C21.9858 14.3483 21.995 14.3483 22.0088 14.3483C22.0456 14.4054 22.0938 14.457 22.1605 14.4543C22.1789 14.4543 22.1881 14.4543 22.1973 14.4598C22.218 14.4652 22.2387 14.4706 22.2801 14.4706C22.3237 14.4706 22.3651 14.4434 22.3996 14.4081C22.4318 14.4516 22.4709 14.4788 22.5215 14.4788C22.5674 14.4788 22.6065 14.457 22.6387 14.4271C22.6709 14.4625 22.71 14.4897 22.7606 14.4897C22.8157 14.4897 22.8548 14.4652 22.8916 14.4326C22.933 14.4298 22.9698 14.4108 22.9997 14.3809C23.0319 14.419 23.0709 14.4462 23.1238 14.4462C23.1836 14.4462 23.1836 14.4516 23.2434 14.4516H23.2526C23.2779 14.4706 23.31 14.4897 23.3629 14.487C23.4089 14.487 23.4319 14.4788 23.4549 14.4679C23.4618 14.4652 23.471 14.4625 23.4848 14.4625C23.6503 14.4598 23.8158 13.9729 23.8526 13.3719C23.8894 12.7735 23.7814 12.2867 23.6158 12.2922L23.6227 12.2949Z" fill="black"/>
<path d="M23.8274 6.84936C23.8274 6.84936 23.8205 6.84936 23.8182 6.84936C23.7539 6.84393 23.6941 6.89016 23.6458 6.94455C23.6228 6.92824 23.5975 6.91464 23.563 6.91192C23.5171 6.90648 23.4734 6.92824 23.4366 6.95815C23.409 6.91736 23.3722 6.88744 23.3239 6.882L23.2021 6.8684C23.1906 6.8684 23.1837 6.86296 23.1768 6.86024C23.1538 6.84665 23.1285 6.83577 23.0848 6.83033C23.0664 6.83033 23.0595 6.82489 23.0503 6.82217C23.0296 6.81401 23.009 6.80313 22.9653 6.80041C22.9239 6.79497 22.9032 6.80041 22.8802 6.80041C22.8733 6.80041 22.8641 6.80041 22.8503 6.80041C22.8204 6.76505 22.7859 6.73514 22.7285 6.72698C22.6779 6.72154 22.6319 6.74602 22.5951 6.77593C22.5675 6.74058 22.5331 6.7161 22.4848 6.71066C22.4388 6.70522 22.3951 6.72698 22.356 6.76233C22.3284 6.71882 22.2916 6.68618 22.2434 6.68074C22.1974 6.6753 22.1675 6.68618 22.1399 6.69434C22.1353 6.69434 22.1284 6.69706 22.1192 6.69706C22.0778 6.69162 22.041 6.71066 22.0066 6.73514C21.9767 6.68074 21.9376 6.63995 21.8847 6.63451C21.8387 6.62907 21.795 6.65083 21.7583 6.68618C21.7307 6.64267 21.6939 6.61003 21.6456 6.60459C21.5973 6.59915 21.5559 6.61819 21.5192 6.64811C21.4916 6.61275 21.4548 6.58283 21.4065 6.57739C21.3306 6.56924 21.2617 6.63451 21.2111 6.69978L21.1559 6.69434C21.1306 6.66443 21.1007 6.63451 21.057 6.62363C21.0272 6.57739 20.9858 6.53116 20.9237 6.52572C20.857 6.51756 20.7996 6.56108 20.7513 6.61547C20.7007 6.62363 20.657 6.66171 20.6179 6.7025H20.5857C20.5558 6.62907 20.5099 6.55564 20.434 6.54748C20.3926 6.54204 20.3558 6.56108 20.3213 6.58555C20.2915 6.53388 20.2524 6.49308 20.1995 6.48764C20.1328 6.47949 20.073 6.52572 20.0225 6.58283C19.9995 6.58555 19.9788 6.59371 19.9581 6.60459C19.9305 6.55564 19.8937 6.51756 19.8454 6.50668C19.8155 6.46589 19.7788 6.43053 19.719 6.42509C19.6707 6.41965 19.6293 6.43869 19.5902 6.46861C19.5626 6.43325 19.5259 6.40605 19.4776 6.40061C19.4224 6.39517 19.3787 6.41965 19.3373 6.44957C19.3121 6.42781 19.2822 6.40605 19.2316 6.40061C19.1902 6.39517 19.1488 6.41421 19.112 6.44413C19.0821 6.39517 19.0454 6.3571 18.9948 6.35166C18.9258 6.3435 18.8637 6.39246 18.8132 6.45501C18.8017 6.45501 18.7902 6.46045 18.7787 6.46589C18.7465 6.38974 18.7005 6.32446 18.6338 6.3163C18.5901 6.31086 18.5603 6.3163 18.535 6.32718C18.5281 6.32718 18.5212 6.33262 18.5051 6.32718C18.4798 6.30542 18.4476 6.28095 18.3947 6.27823C18.3166 6.27007 18.2453 6.34078 18.1924 6.41149C18.1855 6.41149 18.1809 6.41149 18.1763 6.41149C18.1648 6.41149 18.1533 6.41149 18.1303 6.41149C18.1211 6.41149 18.1165 6.40877 18.1119 6.40605C18.0889 6.38974 18.0614 6.37614 18.0131 6.3707C17.9947 6.3707 17.9855 6.36526 17.9763 6.36254C17.9556 6.35438 17.9372 6.34622 17.8935 6.3435C17.859 6.34078 17.8429 6.34078 17.8269 6.33806C17.8131 6.33806 17.7993 6.33806 17.774 6.33534C17.7234 6.3299 17.682 6.34894 17.6429 6.37614C17.6153 6.34622 17.5832 6.32174 17.5326 6.31902C17.482 6.31358 17.4751 6.30814 17.436 6.3027C17.4061 6.25647 17.3693 6.21839 17.3073 6.20752C17.2797 6.1776 17.2452 6.1504 17.19 6.14496C17.144 6.13952 17.1003 6.164 17.0613 6.20208C17.0337 6.15584 16.9969 6.1232 16.9509 6.11777C16.8957 6.11233 16.8566 6.13136 16.8245 6.14768C16.7808 6.14224 16.7532 6.14768 16.7279 6.15856C16.721 6.15856 16.7141 6.16128 16.7026 6.15856C16.6566 6.15312 16.6267 6.16128 16.6014 6.17216C16.5946 6.17216 16.59 6.17488 16.5785 6.17488C16.5578 6.17488 16.5463 6.16944 16.5371 6.16672C16.5187 6.16128 16.5003 6.15584 16.4612 6.1504C16.4267 6.14768 16.3945 6.15584 16.3646 6.17488C16.3348 6.10961 16.2911 6.05521 16.2313 6.05249C16.1738 6.04705 16.1186 6.08513 16.0704 6.13952C16.0451 6.11505 16.0175 6.09601 15.9807 6.09329C15.9301 6.08785 15.8887 6.10961 15.8497 6.1368C15.8244 6.10689 15.7922 6.08513 15.7462 6.07697C15.7186 6.04705 15.6818 6.01714 15.6266 6.0117C15.5991 6.00898 15.5853 6.00626 15.5715 6.00354C15.5554 6.00354 15.5393 5.9981 15.5071 5.99538C15.4427 5.98994 15.3852 6.03345 15.337 6.08513C15.314 6.06881 15.2887 6.05521 15.2542 6.05249C15.2059 6.04705 15.1668 6.06337 15.13 6.08241C15.1048 6.05521 15.0772 6.03073 15.0335 6.02258C15.0036 5.97906 14.9645 5.94098 14.9047 5.93283C14.845 5.92739 14.845 5.91923 14.7852 5.91379C14.7231 5.90835 14.6679 5.94642 14.6219 5.99538C14.6036 5.9845 14.5829 5.97362 14.5507 5.9709C14.5208 5.93011 14.4817 5.89475 14.4242 5.88931C14.3691 5.88387 14.3208 5.91379 14.2771 5.95458C14.2518 5.92739 14.2196 5.90835 14.1782 5.90291C14.1437 5.90019 14.1116 5.90835 14.0817 5.92467C14.0518 5.86483 14.0081 5.81316 13.9483 5.80772C13.8954 5.80228 13.8541 5.82132 13.815 5.84851C13.7506 5.8458 13.6931 5.89475 13.6448 5.94914C13.6242 5.93555 13.5989 5.92467 13.5667 5.92195C13.5207 5.91651 13.4908 5.92467 13.4632 5.93555C13.4609 5.93555 13.4563 5.93555 13.4517 5.93826C13.4218 5.90291 13.385 5.87027 13.3299 5.86483C13.2885 5.85939 13.2586 5.86755 13.2333 5.87843C13.2034 5.82404 13.1597 5.77508 13.1 5.76964C13.054 5.7642 13.031 5.76964 13.0057 5.7778C12.9988 5.7778 12.9896 5.78052 12.9758 5.7778C12.9275 5.77236 12.893 5.78596 12.8609 5.79956C12.8333 5.7642 12.7942 5.72885 12.739 5.72341C12.6861 5.71797 12.6356 5.74789 12.5919 5.79412C12.5666 5.7642 12.539 5.74517 12.5022 5.73701C12.4723 5.70437 12.4378 5.67445 12.3827 5.66901C12.3367 5.66358 12.293 5.68533 12.2539 5.72069C12.2263 5.67717 12.1895 5.64454 12.1413 5.6391C12.093 5.63366 12.0493 5.65814 12.0102 5.69349C11.9826 5.6527 11.9458 5.62278 11.9021 5.62006C11.8585 5.61462 11.8378 5.62006 11.8148 5.6255C11.8056 5.6255 11.7964 5.62822 11.7803 5.6255C11.7228 5.62006 11.6791 5.64182 11.6378 5.67445C11.6033 5.67445 11.5757 5.67989 11.5527 5.69077C11.5228 5.63638 11.4791 5.59286 11.4193 5.58742C11.3665 5.58198 11.3274 5.60102 11.2883 5.6255C11.263 5.60374 11.2308 5.57926 11.1779 5.57383C11.1228 5.56839 11.0814 5.59014 11.04 5.61734C10.994 5.61462 10.9641 5.6255 10.9365 5.6391H10.9227C10.8952 5.6391 10.8722 5.6391 10.8538 5.64454C10.8239 5.56839 10.7756 5.49495 10.702 5.48679C10.6492 5.48136 10.6101 5.50039 10.571 5.52215C10.5204 5.51671 10.4836 5.53303 10.4491 5.54935C10.4123 5.54663 10.3802 5.55479 10.3503 5.57111C10.3204 5.51399 10.2767 5.46776 10.2192 5.46232C10.1595 5.45688 10.1043 5.49495 10.056 5.55207C10.033 5.52759 10.0031 5.51127 9.96863 5.50855C9.94334 5.48408 9.91115 5.4596 9.85597 5.45416C9.7939 5.44872 9.74332 5.48136 9.69964 5.52215L9.65595 5.51671C9.62607 5.44328 9.58009 5.36713 9.50422 5.35897C9.42605 5.35081 9.35708 5.4188 9.30879 5.48407C9.28351 5.48951 9.26281 5.50039 9.24212 5.51399C9.21683 5.48408 9.18465 5.45688 9.13636 5.44872C9.10648 5.41608 9.07199 5.38345 9.01681 5.38073C8.95934 5.37529 8.90876 5.4052 8.86507 5.45144C8.84208 5.42968 8.81219 5.41064 8.77541 5.4052C8.74782 5.37529 8.71334 5.34809 8.65816 5.33993C8.64436 5.33993 8.63747 5.33449 8.63057 5.33177C8.60988 5.32089 8.58689 5.31001 8.54091 5.30457C8.49492 5.29914 8.46274 5.31001 8.43515 5.31817C8.43055 5.31817 8.42595 5.32089 8.41446 5.32089C8.39606 5.32089 8.38687 5.31545 8.37767 5.31273C8.35698 5.30457 8.33859 5.29914 8.2972 5.2937C8.25582 5.28826 8.23283 5.2937 8.21214 5.29642C8.20294 5.29642 8.19375 5.29914 8.17535 5.29642C8.13857 5.2937 8.11788 5.29642 8.09948 5.29642C8.08799 5.29642 8.07649 5.29642 8.0535 5.29642C8.01672 5.2937 7.98453 5.29914 7.95694 5.31273C7.92705 5.25562 7.88337 5.20939 7.8236 5.20395C7.75232 5.19579 7.68795 5.25018 7.63507 5.31817C7.60518 5.32361 7.58219 5.33449 7.5592 5.34537C7.53391 5.32089 7.50173 5.2937 7.44655 5.28826C7.41206 5.28554 7.39367 5.28826 7.37528 5.28826C7.34539 5.21754 7.29941 5.14411 7.22584 5.13595C7.16376 5.13051 7.10629 5.17403 7.05801 5.22842C7.03731 5.2121 7.01432 5.19851 6.98673 5.19307C6.95685 5.15499 6.92006 5.11964 6.85569 5.1142C6.8304 5.09516 6.80051 5.07068 6.74763 5.06796C6.66716 5.0598 6.59129 5.14139 6.53152 5.23386C6.49933 5.16043 6.45335 5.09244 6.38208 5.087C6.34069 5.08156 6.30161 5.09788 6.26712 5.12507C6.23724 5.07612 6.19815 5.04076 6.14757 5.0326C6.12918 5.0326 6.11998 5.02717 6.10849 5.02445C6.0901 5.01629 6.0694 5.01085 6.02802 5.00541C5.98204 4.99997 5.94066 5.02445 5.89927 5.0598C5.87168 5.01357 5.8349 4.98093 5.78892 4.97549C5.72914 4.97005 5.68086 4.99725 5.63718 5.03532L5.53602 5.02445C5.46935 5.01629 5.41187 5.06252 5.36129 5.11964C5.35899 5.11964 5.35439 5.11692 5.35209 5.1142C5.32221 5.01901 5.27163 4.9211 5.18656 4.91294C5.13828 4.9075 5.09 4.93198 5.05092 4.97005C5.02333 4.93198 4.98884 4.9075 4.94286 4.90206C4.86929 4.8939 4.80492 4.95373 4.75434 5.01357C4.73594 5.00813 4.71985 5.00541 4.68307 4.99997C4.63478 4.99453 4.6049 5.00541 4.57731 5.01629C4.57271 5.01629 4.56811 5.01901 4.55892 5.01901C4.54512 5.01901 4.53592 5.01629 4.52903 5.01357C4.51983 5.01357 4.51293 5.01085 4.50604 5.00813C4.47615 4.9211 4.42557 4.83135 4.3451 4.82319C4.27843 4.81775 4.22325 4.85854 4.17497 4.91022C4.14968 4.91022 4.12899 4.91838 4.1106 4.92382C4.08071 4.87486 4.03933 4.83407 3.97955 4.82591C3.91977 4.82047 3.87149 4.85038 3.82781 4.88846C3.82551 4.88846 3.82321 4.88846 3.81861 4.88574C3.79792 4.87486 3.77723 4.8667 3.73585 4.86126C3.70826 4.83135 3.67377 4.80415 3.6186 4.79871C3.56572 4.79327 3.51514 4.82319 3.47145 4.8667C3.44617 4.83679 3.41398 4.81503 3.37259 4.80959C3.33811 4.80687 3.30592 4.81503 3.27603 4.83135C3.24615 4.77151 3.20246 4.71984 3.14269 4.7144C3.09441 4.70896 3.04843 4.73616 3.00704 4.77151C2.97945 4.73344 2.94497 4.70352 2.90129 4.7008C2.82771 4.69264 2.76104 4.7552 2.71046 4.81775C2.70127 4.81775 2.69207 4.81231 2.67828 4.81231C2.64609 4.74976 2.60241 4.69264 2.53573 4.6872C2.51734 4.6872 2.50814 4.68176 2.49895 4.67904C2.47826 4.67088 2.45986 4.66273 2.41848 4.66001C2.3748 4.65457 2.33341 4.67632 2.29433 4.70896C2.26674 4.66273 2.22766 4.63009 2.17938 4.62465C2.1334 4.61921 2.09431 4.63825 2.05753 4.66273C2.02994 4.62193 1.99315 4.59201 1.94257 4.58657C1.8874 4.58113 1.84601 4.60017 1.80693 4.62737C1.76554 4.62737 1.72876 4.64097 1.69427 4.66544C1.66439 4.62465 1.6276 4.59201 1.57702 4.58385C1.51724 4.57841 1.51724 4.57026 1.45747 4.56482H1.44827C1.42298 4.54306 1.3931 4.5213 1.34252 4.51586C1.29653 4.51042 1.27354 4.51586 1.25055 4.52402C1.24366 4.52402 1.23446 4.52674 1.22066 4.52402C1.05513 4.5077 0.850514 4.97277 0.76315 5.56567C0.675785 6.15856 0.740159 6.65355 0.905692 6.66714C0.951674 6.67258 0.974664 6.66714 0.997655 6.65899C1.00455 6.65899 1.02065 6.65899 1.03674 6.65899C1.06203 6.67802 1.09192 6.69978 1.1425 6.70522C1.18848 6.71066 1.19537 6.7161 1.22526 6.71882C1.25285 6.77321 1.29424 6.82217 1.35171 6.83577C1.35631 6.83577 1.36091 6.83577 1.36551 6.83577C1.42758 6.84121 1.47816 6.80857 1.52414 6.76505C1.55633 6.76505 1.58162 6.75418 1.60691 6.73786C1.6368 6.78409 1.67588 6.82217 1.73106 6.82489C1.76325 6.82761 1.79313 6.82217 1.81842 6.80857C1.84831 6.87656 1.89429 6.93368 1.95637 6.93912C2.03224 6.94727 2.10121 6.882 2.15409 6.81129C2.16098 6.81129 2.17018 6.81673 2.17938 6.81945C2.21156 6.882 2.25525 6.93912 2.32192 6.94455C2.3817 6.94999 2.3817 6.95815 2.44147 6.96359C2.48745 6.96903 2.53114 6.94727 2.56792 6.91464C2.59551 6.95543 2.63229 6.99079 2.68057 6.99351C2.72656 6.99895 2.77024 6.97447 2.80932 6.93912C2.83691 6.97991 2.8737 7.01255 2.91968 7.01527C2.96336 7.02071 3.00015 7.00439 3.03463 6.97991C3.06452 7.02615 3.1036 7.0615 3.15418 7.06694C3.22086 7.0751 3.28063 7.02615 3.32891 6.96631C3.3496 6.97991 3.37489 6.99351 3.40708 6.99623C3.42088 6.99623 3.43007 7.00167 3.43697 7.00439C3.45766 7.01527 3.48065 7.02615 3.52433 7.02887C3.57031 7.0343 3.6117 7.01527 3.64848 6.98807C3.67607 7.02615 3.71286 7.05878 3.76344 7.0615C3.80942 7.06694 3.84161 7.05606 3.86689 7.0479C3.87149 7.0479 3.87609 7.04518 3.88759 7.04518C3.92437 7.0479 3.95656 7.03702 3.98875 7.01799C4.01863 7.0751 4.06002 7.12405 4.11979 7.12949C4.14278 7.12949 4.15428 7.13493 4.16577 7.13765C4.18417 7.14309 4.20256 7.14853 4.23934 7.15125C4.28763 7.15669 4.31751 7.14581 4.3451 7.13493C4.3497 7.13493 4.3543 7.13221 4.36349 7.13221C4.38648 7.13221 4.40028 7.13765 4.41177 7.14037C4.43017 7.14581 4.44626 7.14853 4.48305 7.15397C4.53363 7.15941 4.57961 7.13221 4.62099 7.09686C4.64858 7.13221 4.68306 7.15941 4.72675 7.16213C4.76583 7.16757 4.80262 7.15125 4.8371 7.12677C4.86699 7.18117 4.90837 7.22468 4.96125 7.23012C4.97735 7.23012 4.98654 7.23556 4.99574 7.23828C5.01643 7.24644 5.03712 7.25732 5.0808 7.26004C5.14978 7.2682 5.20955 7.21924 5.26013 7.15941L5.3383 7.16757C5.36589 7.16757 5.38888 7.16757 5.41187 7.15669C5.44406 7.23828 5.49004 7.31171 5.55901 7.31443C5.63948 7.32259 5.71305 7.24644 5.77053 7.15669C5.80041 7.23012 5.84869 7.30899 5.92226 7.31443C5.96595 7.31987 6.00733 7.30084 6.04641 7.27092C6.0763 7.31443 6.11309 7.34707 6.16137 7.35251C6.17516 7.35251 6.18206 7.35795 6.19126 7.36067C6.21195 7.37155 6.23494 7.38243 6.27862 7.38515C6.35679 7.39331 6.42806 7.31987 6.48784 7.23284C6.49933 7.23828 6.51313 7.24372 6.52922 7.24644C6.55681 7.27908 6.5867 7.30356 6.63728 7.31987C6.66716 7.35795 6.70395 7.39602 6.76372 7.40146C6.812 7.4069 6.85799 7.38243 6.89707 7.34707C6.92466 7.38515 6.95915 7.41506 7.00513 7.4205C7.04421 7.42322 7.0626 7.4205 7.08329 7.4205C7.09479 7.4205 7.10399 7.4205 7.12468 7.4205C7.14997 7.44498 7.18215 7.47218 7.23963 7.47762C7.29481 7.48306 7.33159 7.46674 7.36608 7.4477C7.41436 7.45314 7.46034 7.42866 7.49943 7.39331C7.52702 7.43138 7.5615 7.45858 7.60748 7.4613C7.66036 7.46674 7.69945 7.45042 7.73853 7.42594C7.77532 7.42866 7.79371 7.42594 7.8121 7.42594C7.8236 7.42594 7.83509 7.42594 7.85578 7.42594C7.89717 7.43138 7.92016 7.42594 7.94085 7.42322C7.95004 7.42322 7.95924 7.4205 7.97763 7.42322C7.99603 7.42322 8.00522 7.42866 8.01442 7.43138C8.03511 7.43954 8.0535 7.44498 8.09489 7.45042C8.14087 7.45586 8.17305 7.44498 8.20064 7.43682C8.20524 7.43682 8.20984 7.4341 8.21904 7.4341C8.23283 7.4341 8.23973 7.43954 8.24662 7.44226C8.26732 7.45314 8.28801 7.46402 8.33169 7.46946C8.35698 7.49665 8.38687 7.52113 8.43055 7.53201C8.46044 7.57281 8.49952 7.61088 8.5593 7.61632C8.61907 7.62176 8.67195 7.58912 8.71793 7.54017C8.73863 7.55921 8.76391 7.57281 8.7961 7.57824C8.82599 7.61632 8.86278 7.64624 8.92025 7.6544C8.97543 7.65984 9.01681 7.6408 9.0559 7.6136C9.09958 7.6136 9.13866 7.59456 9.17545 7.56465C9.20304 7.60544 9.23982 7.6408 9.2881 7.64352L9.40765 7.6544C9.46283 7.65984 9.51111 7.63264 9.5548 7.59728C9.57089 7.61088 9.59158 7.62448 9.61917 7.63264C9.65136 7.69247 9.69504 7.74687 9.76171 7.75503C9.81689 7.76046 9.86977 7.72783 9.91345 7.67887C9.93874 7.70879 9.97093 7.72783 10.0077 7.73327C10.0629 7.73871 10.1066 7.71695 10.148 7.68431C10.1939 7.68431 10.2284 7.67071 10.2606 7.65712C10.2905 7.65984 10.3158 7.65712 10.3411 7.64624C10.371 7.71695 10.4169 7.7795 10.4859 7.78766C10.5296 7.7931 10.5572 7.78766 10.5825 7.7795C10.5894 7.7795 10.5963 7.77678 10.6101 7.7795C10.6606 7.78494 10.6951 7.77134 10.7227 7.76046H10.7342C10.7871 7.76318 10.8285 7.74415 10.8676 7.71695C10.8929 7.73871 10.9227 7.76046 10.9756 7.7659C11.0147 7.77134 11.0492 7.76046 11.0791 7.74415C11.109 7.7931 11.1504 7.83662 11.2078 7.84206C11.2584 7.84749 11.2952 7.8339 11.3251 7.8203H11.3343C11.3895 7.82302 11.4354 7.80126 11.4768 7.76862C11.5021 7.76862 11.5205 7.76862 11.5366 7.76862C11.5665 7.83934 11.6148 7.91277 11.686 7.91821C11.7274 7.92365 11.7665 7.90461 11.801 7.87741C11.8309 7.92909 11.87 7.96716 11.9205 7.9726C11.9895 7.98076 12.0539 7.92365 12.1068 7.85565C12.116 7.86109 12.1229 7.86653 12.1321 7.86925C12.1642 7.93725 12.2102 7.9998 12.2792 8.00796C12.3436 8.0134 12.401 7.96988 12.4493 7.91277C12.4723 7.93181 12.4976 7.9454 12.5321 7.94812C12.585 7.95356 12.6218 7.93725 12.6585 7.92093C12.7022 7.92637 12.7252 7.92093 12.7482 7.91549C12.7804 7.97532 12.8241 8.02428 12.8861 8.03243C12.939 8.03787 12.9735 8.02428 13.0034 8.00796C13.0333 8.04331 13.0678 8.07323 13.123 8.07867C13.1689 8.08411 13.1988 8.07595 13.2264 8.06507C13.231 8.06507 13.2356 8.06235 13.2471 8.06235C13.2724 8.08683 13.3046 8.11403 13.3621 8.11947C13.4425 8.12762 13.5138 8.05419 13.5644 7.98348C13.5713 7.98348 13.5805 7.97804 13.5874 7.97532C13.6173 8.04059 13.6632 8.10315 13.7276 8.10859C13.7759 8.11403 13.8173 8.09499 13.8541 8.06779C13.8816 8.10315 13.9161 8.13034 13.9667 8.13578C14.0219 8.14122 14.0725 8.11131 14.1185 8.06507C14.1437 8.08955 14.1736 8.10859 14.215 8.11131C14.2265 8.11131 14.2311 8.11675 14.238 8.11947C14.261 8.13306 14.2863 8.14666 14.3323 8.1521C14.3966 8.15754 14.4541 8.11675 14.5024 8.06507C14.5231 8.06779 14.5369 8.07323 14.5668 8.07595C14.5944 8.11675 14.6311 8.1521 14.6863 8.16298C14.7162 8.19562 14.7507 8.22553 14.8082 8.23369C14.8588 8.23913 14.8955 8.22281 14.9346 8.20106C14.9622 8.23097 14.9967 8.25545 15.0496 8.26089C15.1231 8.26905 15.1898 8.2065 15.2404 8.14394C15.2404 8.14394 15.245 8.14394 15.2473 8.14394C15.2611 8.14394 15.2772 8.14938 15.3048 8.1521C15.3301 8.1793 15.3622 8.20378 15.4082 8.21465C15.4381 8.25545 15.4749 8.28809 15.5347 8.29625C15.5761 8.30168 15.6128 8.28809 15.645 8.26633C15.6749 8.31528 15.714 8.35336 15.7692 8.3588C15.8129 8.36424 15.8543 8.34248 15.8933 8.30984C15.9209 8.3588 15.9577 8.39416 16.0083 8.39687C16.075 8.40503 16.1347 8.3588 16.1853 8.29897C16.1853 8.29897 16.1853 8.29897 16.1876 8.29897C16.206 8.3044 16.2244 8.30984 16.2635 8.31528C16.3095 8.32072 16.3394 8.31256 16.3646 8.30169C16.3715 8.30169 16.3761 8.29897 16.3876 8.29897C16.4313 8.3044 16.4589 8.29897 16.4842 8.28809C16.4911 8.28809 16.498 8.28537 16.5095 8.28809C16.5302 8.28809 16.5509 8.28809 16.567 8.28537C16.5991 8.38328 16.6474 8.47031 16.7256 8.47847C16.8015 8.48662 16.8727 8.41591 16.9302 8.3316C16.9394 8.33704 16.9509 8.33976 16.9647 8.3452C16.9946 8.39415 17.036 8.43495 17.098 8.44311C17.1555 8.44855 17.1555 8.45399 17.2084 8.45943C17.2383 8.49206 17.2728 8.5247 17.328 8.53014C17.3854 8.53558 17.4291 8.5111 17.4705 8.47847C17.4958 8.47847 17.5096 8.47847 17.5234 8.48119C17.5372 8.48119 17.551 8.48119 17.5763 8.48391C17.5946 8.48391 17.6038 8.48934 17.613 8.49206C17.6337 8.50022 17.6521 8.50838 17.6958 8.5111C17.705 8.5111 17.7096 8.51382 17.7142 8.51654C17.7372 8.53286 17.7648 8.54646 17.8131 8.5519C17.8498 8.55462 17.8705 8.5519 17.8889 8.5519C17.9004 8.5519 17.9119 8.5519 17.9349 8.5519C18.0039 8.56006 18.066 8.50566 18.1165 8.44311C18.1349 8.45399 18.1602 8.46487 18.1924 8.46759C18.2154 8.46759 18.2361 8.46759 18.2522 8.46759C18.2844 8.55734 18.3326 8.64709 18.4108 8.65253C18.4706 8.65797 18.5189 8.63077 18.5603 8.59541C18.5901 8.59541 18.62 8.58181 18.6453 8.5655C18.6752 8.62261 18.7189 8.67156 18.7741 8.677C18.8407 8.68516 18.9028 8.63349 18.9511 8.57366C18.9718 8.58725 18.9948 8.59813 19.0293 8.60085C19.0775 8.60629 19.1166 8.58725 19.1534 8.56278C19.181 8.59813 19.2178 8.62805 19.2684 8.63349C19.3189 8.63893 19.3626 8.61717 19.4017 8.58725C19.4201 8.60629 19.4408 8.62533 19.4661 8.63621C19.4983 8.70692 19.5443 8.76675 19.6155 8.77491C19.673 8.78035 19.7167 8.75588 19.7581 8.72596C19.788 8.72596 19.8178 8.71508 19.8454 8.69876C19.8753 8.75859 19.919 8.81027 19.9765 8.81571C20.0225 8.82115 20.0684 8.79667 20.1075 8.76403C20.1351 8.80483 20.1719 8.83475 20.2179 8.84019L20.3374 8.85106C20.4064 8.85922 20.4639 8.81299 20.5145 8.75588C20.549 8.74772 20.5811 8.72868 20.611 8.7042C20.6363 8.7314 20.6662 8.75316 20.7053 8.76131C20.7352 8.79939 20.772 8.82931 20.8294 8.83747L20.9513 8.84835C21.0088 8.85378 21.0616 8.81843 21.1076 8.77219C21.1329 8.79667 21.1628 8.81571 21.1996 8.81843C21.2341 8.82115 21.264 8.81299 21.2939 8.79667C21.3237 8.85922 21.3674 8.91362 21.4295 8.91906C21.4732 8.9245 21.5146 8.90274 21.5513 8.87282C21.5812 8.92178 21.6203 8.95713 21.6686 8.96257C21.7468 8.97073 21.8157 8.90274 21.8663 8.83747C21.8732 8.83747 21.8778 8.83747 21.8824 8.83475C21.9123 8.90818 21.9606 8.98161 22.0319 8.98705C22.0893 8.99249 22.1445 8.95441 22.1905 8.90546C22.2158 8.92994 22.2457 8.94897 22.2825 8.95169C22.3399 8.95713 22.3905 8.92722 22.4296 8.89186C22.4549 8.91634 22.4848 8.93538 22.5285 8.94081C22.5698 8.94625 22.5905 8.94081 22.6135 8.94081C22.6227 8.94081 22.6342 8.9381 22.6526 8.94081C22.671 8.94081 22.6779 8.94625 22.6871 8.94897C22.7078 8.95713 22.7285 8.96801 22.7722 8.97073C22.7836 8.97073 22.7905 8.97617 22.7974 8.97889C22.8204 8.99249 22.8457 9.00337 22.8894 9.00881L22.9722 9.01697C23.0044 9.07952 23.048 9.13663 23.1147 9.14207C23.1722 9.14751 23.2228 9.1176 23.2688 9.07408C23.294 9.09584 23.3239 9.11488 23.3653 9.1176C23.4527 9.12575 23.5285 9.03872 23.5814 8.96257C23.7309 8.86194 23.8895 8.44855 23.9654 7.9454C24.0504 7.36611 23.9907 6.87928 23.832 6.84393L23.8274 6.84936Z" fill="black"/>
<path d="M23.1127 19.1131C23.1127 19.1131 23.1058 19.1131 23.1035 19.1131C23.0391 19.1104 22.9793 19.1593 22.9333 19.2192C22.9103 19.2028 22.8851 19.192 22.8506 19.192C22.8046 19.192 22.7609 19.211 22.7241 19.2436C22.6942 19.2056 22.6574 19.1756 22.6092 19.1729L22.4873 19.1648C22.4758 19.1648 22.4689 19.162 22.462 19.1593C22.439 19.1484 22.4137 19.1376 22.3678 19.1348C22.3494 19.1348 22.3425 19.1321 22.3333 19.1267C22.3126 19.1185 22.2919 19.1104 22.2482 19.1076C22.2068 19.1076 22.1861 19.1076 22.1631 19.1131C22.1562 19.1131 22.1471 19.1158 22.1356 19.1158C22.1057 19.0832 22.0689 19.0533 22.0114 19.0505C21.9608 19.0478 21.9171 19.075 21.8804 19.1049C21.8528 19.0723 21.816 19.0478 21.7677 19.0451C21.7217 19.0451 21.678 19.0668 21.6413 19.1022C21.6114 19.0614 21.5723 19.0288 21.5263 19.0261C21.4803 19.0261 21.4504 19.0342 21.4228 19.0451C21.4182 19.0451 21.4113 19.0505 21.4022 19.0478C21.3608 19.0478 21.324 19.0641 21.2895 19.0913C21.2573 19.0397 21.2159 18.9989 21.163 18.9961C21.1171 18.9961 21.0757 19.0179 21.0366 19.0533C21.0067 19.0097 20.9676 18.9798 20.9216 18.9771C20.8734 18.9771 20.832 18.9961 20.7952 19.0261C20.7653 18.9907 20.7285 18.9662 20.6802 18.9608C20.6044 18.9553 20.5377 19.0233 20.4894 19.094H20.4342C20.409 19.0614 20.3768 19.0369 20.3331 19.0261C20.3009 18.9798 20.2595 18.939 20.1974 18.9363C20.1308 18.9336 20.0733 18.9798 20.0273 19.0342C19.9767 19.0451 19.933 19.0832 19.8963 19.1294H19.8641C19.8319 19.0587 19.7836 18.988 19.7077 18.9853C19.6664 18.9853 19.6296 19.0016 19.5951 19.0288C19.5629 18.9771 19.5215 18.939 19.4686 18.9363C19.3997 18.9336 19.3422 18.9798 19.2962 19.0397C19.2732 19.0451 19.2525 19.0533 19.2341 19.0668C19.2042 19.0206 19.1675 18.9825 19.1169 18.9744C19.0847 18.9363 19.0479 18.9009 18.9881 18.8982C18.9398 18.8982 18.8985 18.9173 18.8617 18.9472C18.8318 18.9145 18.795 18.8873 18.7467 18.8846C18.6915 18.8819 18.6479 18.9064 18.6088 18.9417C18.5835 18.92 18.5513 18.9009 18.503 18.8982C18.4593 18.8982 18.4203 18.9173 18.3858 18.9472C18.3559 18.9009 18.3145 18.8629 18.2639 18.8629C18.1949 18.8602 18.1352 18.9118 18.0846 18.9744C18.0731 18.9771 18.0616 18.9825 18.0524 18.9853C18.0179 18.9091 17.9696 18.8466 17.903 18.8411C17.8593 18.8411 17.8294 18.8466 17.8041 18.8574C17.7972 18.8574 17.7903 18.8629 17.7742 18.8574C17.7489 18.8384 17.7167 18.8139 17.6639 18.8112C17.5857 18.8058 17.5167 18.8819 17.4661 18.9553C17.4592 18.9553 17.4546 18.9553 17.4501 18.9553C17.4386 18.9553 17.4271 18.9581 17.4041 18.9553C17.3949 18.9553 17.3903 18.9526 17.3857 18.9499C17.3604 18.9363 17.3328 18.9227 17.2868 18.92C17.2684 18.92 17.2592 18.9145 17.25 18.9118C17.2293 18.9037 17.2086 18.8982 17.1673 18.8955C17.1328 18.8955 17.1167 18.8955 17.1006 18.8955C17.0868 18.8955 17.073 18.8955 17.0477 18.8955C16.9971 18.8928 16.9557 18.9145 16.919 18.9445C16.8914 18.9173 16.8569 18.8928 16.8063 18.8928C16.7557 18.8901 16.7488 18.8846 16.7097 18.8819C16.6799 18.8384 16.6385 18.8003 16.5787 18.7922C16.5488 18.765 16.5143 18.7378 16.4591 18.735C16.4132 18.735 16.3718 18.7568 16.3327 18.7976C16.3028 18.7541 16.266 18.7214 16.2177 18.7187C16.1626 18.716 16.1235 18.735 16.0913 18.7541C16.0476 18.7541 16.02 18.7595 15.9947 18.7677C15.9878 18.7677 15.9809 18.7731 15.9694 18.7704C15.9235 18.7704 15.8936 18.7786 15.8683 18.7867C15.8614 18.7867 15.8568 18.7922 15.8453 18.7894C15.8246 18.7894 15.8131 18.7867 15.8039 18.784C15.7855 18.7786 15.7671 18.7731 15.728 18.7731C15.6936 18.7731 15.6614 18.784 15.6315 18.803C15.5993 18.7405 15.5533 18.6888 15.4935 18.6861C15.4361 18.6834 15.3832 18.7242 15.3372 18.7786C15.3119 18.7541 15.282 18.7378 15.2452 18.735C15.1947 18.735 15.1533 18.7541 15.1165 18.784C15.0889 18.7568 15.0567 18.735 15.0107 18.7296C14.9808 18.6997 14.9441 18.6725 14.8889 18.6698C14.8613 18.6698 14.8475 18.6671 14.8337 18.6643C14.8176 18.6643 14.8015 18.6616 14.7693 18.6589C14.705 18.6562 14.6475 18.7024 14.6038 18.7568C14.5808 18.7405 14.5532 18.7296 14.5187 18.7269C14.4705 18.7269 14.4314 18.7405 14.3969 18.765C14.3716 18.7378 14.3417 18.716 14.298 18.7078C14.2658 18.6671 14.2268 18.629 14.1647 18.6263C14.1049 18.6235 14.1049 18.6154 14.0451 18.6127C13.9831 18.6099 13.9302 18.6507 13.8842 18.7024C13.8658 18.6943 13.8428 18.6834 13.8129 18.6807C13.783 18.6426 13.7416 18.6072 13.6842 18.6045C13.629 18.6018 13.5807 18.6317 13.5393 18.6779C13.514 18.6535 13.4819 18.6344 13.4405 18.6317C13.406 18.6317 13.3738 18.6399 13.3462 18.6562C13.314 18.5991 13.2703 18.5474 13.2083 18.5447C13.1554 18.5419 13.114 18.5637 13.0749 18.5909C13.0105 18.5909 12.9531 18.6426 12.9094 18.6997C12.8887 18.6888 12.8634 18.6779 12.8312 18.6752C12.7852 18.6752 12.7553 18.6834 12.7278 18.6943C12.7255 18.6943 12.7209 18.6943 12.7163 18.697C12.6864 18.6616 12.6473 18.6317 12.5921 18.629C12.5507 18.629 12.5208 18.6371 12.4956 18.648C12.4634 18.5936 12.4197 18.5501 12.3576 18.5474C12.3116 18.5474 12.2886 18.5528 12.2633 18.5583C12.2564 18.5583 12.2473 18.5637 12.2335 18.561C12.1852 18.561 12.1507 18.5719 12.1185 18.5882C12.0886 18.5528 12.0495 18.5229 11.9944 18.5202C11.9415 18.5175 11.8909 18.5501 11.8495 18.5963C11.8242 18.5691 11.7943 18.5501 11.7576 18.5447C11.7277 18.512 11.6909 18.4848 11.6357 18.4821C11.5897 18.4821 11.5483 18.5039 11.5093 18.5392C11.4794 18.4957 11.4426 18.4658 11.3943 18.4631C11.346 18.4631 11.3023 18.4876 11.2655 18.5229C11.2357 18.4848 11.1989 18.4549 11.1552 18.4549C11.1115 18.4549 11.0908 18.4576 11.0678 18.4631C11.0586 18.4631 11.0494 18.4685 11.0333 18.4658C10.9759 18.4631 10.9345 18.4876 10.8931 18.5229C10.8586 18.5229 10.831 18.5311 10.8103 18.5419C10.7781 18.4903 10.7345 18.4468 10.6747 18.444C10.6218 18.4413 10.5827 18.4604 10.5459 18.4876C10.5206 18.4658 10.4885 18.444 10.4333 18.4413C10.3781 18.4386 10.3367 18.4604 10.2976 18.493C10.2517 18.493 10.2218 18.5066 10.1965 18.5175H10.1827C10.1551 18.5175 10.1321 18.5229 10.1137 18.5256C10.0815 18.4522 10.0309 18.3788 9.95738 18.376C9.9045 18.3733 9.86541 18.3924 9.82863 18.4168C9.77805 18.4168 9.74127 18.4332 9.70678 18.4495C9.66999 18.4495 9.63781 18.4576 9.60792 18.474C9.57573 18.4196 9.53205 18.376 9.47227 18.3706C9.4125 18.3679 9.35732 18.4114 9.31134 18.4685C9.28605 18.4468 9.25616 18.4304 9.22167 18.4277C9.19409 18.406 9.1619 18.3815 9.10672 18.3788C9.04465 18.376 8.99637 18.4114 8.95268 18.4549H8.909C8.87681 18.3815 8.82853 18.3081 8.75037 18.3026C8.6722 18.2972 8.60552 18.3679 8.55724 18.4359C8.53425 18.444 8.51126 18.4549 8.49057 18.4685C8.46298 18.4386 8.43079 18.4168 8.38251 18.4087C8.35263 18.376 8.31584 18.3488 8.26066 18.3461C8.20319 18.3434 8.15491 18.376 8.11122 18.425C8.08593 18.4032 8.05835 18.3869 8.01926 18.3842C7.98937 18.3543 7.95489 18.3298 7.89971 18.3244C7.88591 18.3244 7.87902 18.3217 7.87212 18.3162C7.84913 18.3053 7.82844 18.2945 7.78246 18.2945C7.73647 18.2945 7.70429 18.3026 7.679 18.3135C7.6744 18.3135 7.6698 18.3189 7.65831 18.3162C7.63991 18.3162 7.63072 18.3108 7.62152 18.3081C7.60083 18.3026 7.58244 18.2945 7.54105 18.2917C7.49967 18.2917 7.47668 18.2917 7.45599 18.2999C7.44679 18.2999 7.4376 18.3053 7.4192 18.3026C7.38012 18.3026 7.36173 18.3026 7.34333 18.3053C7.33184 18.3053 7.32034 18.3081 7.29735 18.3053C7.26057 18.3053 7.22838 18.3135 7.20079 18.3271C7.1686 18.2727 7.12492 18.2265 7.06285 18.2237C6.99158 18.221 6.9295 18.2754 6.87662 18.3461C6.84903 18.3516 6.82374 18.3652 6.80075 18.376C6.77316 18.3516 6.74098 18.3298 6.6858 18.3244C6.65131 18.3244 6.63292 18.3244 6.61453 18.3244C6.58234 18.2537 6.53176 18.1829 6.45819 18.1802C6.39612 18.1775 6.33864 18.2237 6.29266 18.2809C6.27197 18.2645 6.24898 18.2537 6.21909 18.2509C6.1892 18.2156 6.15012 18.1829 6.08574 18.1775C6.06045 18.1585 6.02827 18.1367 5.97769 18.134C5.89722 18.1286 5.82365 18.2129 5.76617 18.3081C5.73168 18.2346 5.6834 18.1721 5.60983 18.1693C5.56845 18.1693 5.52937 18.1857 5.49488 18.2129C5.46499 18.1666 5.42361 18.1313 5.37073 18.1258C5.35234 18.1258 5.34084 18.1204 5.33165 18.1177C5.31096 18.1122 5.29256 18.1041 5.25118 18.1041C5.2052 18.1041 5.16381 18.1258 5.12473 18.1639C5.09484 18.1204 5.05806 18.0878 5.00978 18.085C4.95 18.0823 4.90402 18.1122 4.86034 18.153L4.75918 18.1476C4.69251 18.1449 4.63503 18.1911 4.58675 18.2509C4.58445 18.2509 4.57985 18.2509 4.57755 18.2482C4.54307 18.1557 4.49019 18.0606 4.40512 18.0551C4.35454 18.0524 4.31086 18.0796 4.27177 18.1177C4.24189 18.0823 4.2074 18.0578 4.16142 18.0551C4.08785 18.0524 4.02577 18.1122 3.97749 18.1775C3.9591 18.1748 3.94301 18.1693 3.90622 18.1693C3.85794 18.1693 3.82805 18.1775 3.80047 18.1911C3.79587 18.1911 3.79127 18.1965 3.78207 18.1938C3.76828 18.1938 3.75908 18.1938 3.75218 18.1911C3.74299 18.1911 3.73609 18.1884 3.72919 18.1857C3.69701 18.1014 3.64413 18.0116 3.56136 18.0089C3.49469 18.0062 3.43951 18.0497 3.39353 18.1041C3.36824 18.1041 3.34755 18.115 3.32916 18.1204C3.29697 18.0742 3.25559 18.0334 3.19581 18.0306C3.13603 18.0279 3.08775 18.0606 3.04637 18.1014C3.04407 18.1014 3.03947 18.1014 3.03717 18.0986C3.01648 18.0905 2.99579 18.0796 2.95441 18.0769C2.92452 18.047 2.89003 18.0225 2.83486 18.0198C2.78198 18.017 2.7314 18.0497 2.69001 18.0959C2.66243 18.066 2.63024 18.047 2.58885 18.0442C2.55437 18.0442 2.52218 18.0524 2.49459 18.0714C2.46241 18.0116 2.41642 17.9627 2.35665 17.9599C2.30837 17.9599 2.26239 17.9844 2.2233 18.0252C2.19571 17.9898 2.15893 17.9599 2.11525 17.9599C2.04168 17.9572 1.9773 18.0198 1.92902 18.085C1.91983 18.085 1.91063 18.0823 1.89683 18.0796C1.86235 18.0198 1.81637 17.9654 1.74969 17.9627C1.7313 17.9627 1.72211 17.9572 1.71291 17.9545C1.69222 17.9491 1.67153 17.9409 1.63014 17.9382C1.58646 17.9382 1.54508 17.9572 1.50829 17.9926C1.4784 17.9491 1.43932 17.9164 1.39104 17.9137C1.34506 17.9137 1.30597 17.93 1.26919 17.9572C1.2393 17.9191 1.20252 17.8892 1.14964 17.8865C1.09446 17.8838 1.05537 17.9055 1.01629 17.9355C0.974907 17.9355 0.938122 17.9518 0.905935 17.979C0.876047 17.9382 0.836963 17.9083 0.786383 17.9028C0.726607 17.9001 0.726607 17.8919 0.666832 17.8892H0.657635C0.632345 17.8675 0.602458 17.8484 0.549579 17.8457C0.503598 17.8457 0.480607 17.8511 0.457616 17.8566C0.450719 17.8566 0.441523 17.862 0.427728 17.8593C0.262195 17.8511 0.0736712 18.3244 0.00699817 18.92C-0.0596749 19.5156 0.0230917 20.0079 0.188625 20.0133C0.234606 20.0133 0.257597 20.0079 0.280588 20.0024C0.287485 20.0024 0.303578 20.0024 0.319672 20.0024C0.344962 20.0215 0.377149 20.0405 0.427728 20.0432C0.47371 20.0432 0.480607 20.0514 0.512794 20.0541C0.542682 20.1058 0.584065 20.1547 0.643841 20.1656C0.648439 20.1656 0.653037 20.1656 0.657635 20.1656C0.71971 20.1683 0.77029 20.133 0.813972 20.0867C0.84386 20.084 0.871449 20.0731 0.896739 20.0568C0.928926 20.1003 0.96801 20.1357 1.02549 20.1384C1.05767 20.1384 1.08756 20.1303 1.11285 20.1167C1.14504 20.1819 1.19332 20.2363 1.25539 20.2418C1.33126 20.2472 1.39794 20.1765 1.44852 20.1031C1.45541 20.1031 1.46461 20.1085 1.47381 20.1085C1.50829 20.1683 1.55427 20.2254 1.62095 20.2282C1.68072 20.2309 1.68072 20.239 1.7405 20.2418C1.78648 20.2418 1.82786 20.22 1.86465 20.1874C1.89454 20.2282 1.93132 20.2581 1.9796 20.2608C2.02558 20.2608 2.06926 20.239 2.10835 20.201C2.13824 20.2418 2.17502 20.2717 2.221 20.2717C2.26469 20.2717 2.30147 20.2581 2.33596 20.2309C2.36584 20.2744 2.40723 20.307 2.46011 20.3125C2.52678 20.3152 2.58426 20.2635 2.63254 20.2037C2.65323 20.2173 2.68082 20.2282 2.713 20.2282C2.7268 20.2282 2.736 20.2309 2.74289 20.2363C2.76358 20.2472 2.78657 20.2554 2.83256 20.2581C2.87854 20.2581 2.91992 20.2418 2.95441 20.2118C2.9843 20.2499 3.02108 20.2771 3.07166 20.2798C3.11764 20.2798 3.14753 20.2717 3.17512 20.2608C3.17972 20.2608 3.18431 20.2554 3.19581 20.2581C3.23259 20.2581 3.26478 20.2472 3.29697 20.2254C3.32916 20.2826 3.37284 20.3288 3.43031 20.3315C3.45331 20.3315 3.4648 20.3342 3.4763 20.3369C3.49469 20.3397 3.51308 20.3451 3.54987 20.3478C3.59815 20.3478 3.62803 20.3397 3.65562 20.3261C3.66022 20.3261 3.66482 20.3206 3.67402 20.3234C3.69931 20.3234 3.7108 20.3261 3.7223 20.3288C3.74069 20.3315 3.75678 20.3369 3.79357 20.3369C3.84415 20.3397 3.89013 20.3098 3.92921 20.2717C3.9568 20.307 3.99359 20.3315 4.03727 20.3315C4.07635 20.3315 4.11314 20.3179 4.14533 20.2907C4.17751 20.3451 4.2189 20.3859 4.27407 20.3886C4.29017 20.3886 4.29936 20.3913 4.30856 20.3968C4.32925 20.4049 4.34994 20.4131 4.39363 20.4158C4.4626 20.4185 4.52007 20.3696 4.57065 20.307L4.64882 20.3125C4.67641 20.3125 4.6994 20.307 4.72239 20.2989C4.75688 20.3805 4.80746 20.4485 4.87643 20.4512C4.9569 20.4566 5.02817 20.375 5.08335 20.2853C5.11553 20.3587 5.16611 20.4321 5.24198 20.4349C5.28796 20.4349 5.32705 20.4158 5.36383 20.3859C5.39372 20.4267 5.43281 20.4593 5.48109 20.4621C5.49488 20.4621 5.50408 20.4675 5.51097 20.4702C5.53167 20.4784 5.55466 20.4893 5.60064 20.492C5.67881 20.4974 5.74778 20.4185 5.80526 20.3288C5.81675 20.3342 5.83284 20.3369 5.84894 20.3397C5.87653 20.3723 5.90871 20.3941 5.95929 20.4077C5.98918 20.4457 6.02826 20.4784 6.08804 20.4838C6.13632 20.4838 6.18 20.4593 6.21909 20.4213C6.24898 20.4593 6.28346 20.4865 6.32944 20.4893C6.36853 20.4893 6.38692 20.4893 6.40761 20.4865C6.41911 20.4865 6.4283 20.4838 6.449 20.4865C6.47658 20.511 6.50877 20.5355 6.56625 20.5382C6.62143 20.5409 6.65821 20.5219 6.6904 20.5029C6.73868 20.5029 6.78236 20.4811 6.82144 20.443C6.85133 20.4784 6.88582 20.5056 6.9318 20.5056C6.98468 20.5083 7.02376 20.4893 7.06055 20.4648C7.09733 20.4648 7.11573 20.4648 7.13412 20.4621C7.14561 20.4621 7.15711 20.4593 7.1778 20.4621C7.21918 20.4621 7.24217 20.4621 7.26287 20.4539C7.27206 20.4539 7.28126 20.4485 7.29965 20.4512C7.31804 20.4512 7.32724 20.4566 7.33644 20.4593C7.35713 20.4648 7.37552 20.4729 7.4169 20.4757C7.46288 20.4757 7.49507 20.4675 7.52036 20.4566C7.52496 20.4566 7.52956 20.4512 7.53875 20.4539C7.55255 20.4539 7.55945 20.4566 7.56634 20.4621C7.58704 20.4729 7.60773 20.4811 7.65141 20.4838C7.6767 20.5083 7.70659 20.5328 7.75257 20.5409C7.78246 20.5817 7.82384 20.6171 7.88362 20.6198C7.94339 20.6225 7.99397 20.5872 8.03995 20.5355C8.06064 20.5518 8.08823 20.5654 8.12042 20.5681C8.15031 20.6035 8.18939 20.6334 8.24687 20.6388C8.30205 20.6416 8.34113 20.6198 8.38021 20.5899C8.4239 20.5899 8.46298 20.5654 8.49747 20.5355C8.52735 20.5763 8.56414 20.6089 8.61242 20.6089L8.73197 20.6144C8.78945 20.6171 8.83543 20.5872 8.87681 20.5491C8.89291 20.5627 8.9136 20.5736 8.94119 20.5817C8.97337 20.6388 9.01936 20.6932 9.08833 20.696C9.14351 20.6987 9.19409 20.6633 9.23777 20.6116C9.26536 20.6388 9.29524 20.6579 9.33433 20.6606C9.38951 20.6633 9.43319 20.6388 9.47457 20.6062C9.52055 20.6062 9.55504 20.5899 9.58723 20.5736C9.61711 20.5736 9.6424 20.5681 9.66769 20.56C9.69988 20.628 9.74816 20.6905 9.81713 20.6932C9.86082 20.6932 9.88841 20.6878 9.9137 20.6796C9.92059 20.6796 9.92749 20.6742 9.94128 20.6769C9.99186 20.6796 10.024 20.666 10.0539 20.6524H10.0654C10.1183 20.6524 10.1597 20.6307 10.1965 20.6008C10.2218 20.6225 10.254 20.6416 10.3068 20.6443C10.3482 20.6443 10.3804 20.6361 10.4103 20.6171C10.4425 20.666 10.4839 20.7041 10.5413 20.7068C10.5942 20.7095 10.6287 20.6932 10.6563 20.6769H10.6655C10.723 20.6769 10.7644 20.6524 10.8057 20.6198C10.831 20.6198 10.8494 20.6198 10.8655 20.6144C10.8977 20.6851 10.9483 20.7531 11.0195 20.7558C11.0609 20.7558 11.1 20.7395 11.1345 20.7095C11.1667 20.7585 11.2058 20.7966 11.2564 20.7993C11.3253 20.802 11.3874 20.7449 11.438 20.6742C11.4472 20.6796 11.4564 20.6824 11.4656 20.6878C11.5001 20.7558 11.5483 20.8156 11.6173 20.8183C11.6817 20.8211 11.7369 20.7748 11.7851 20.715C11.8081 20.7313 11.8357 20.7449 11.8679 20.7449C11.9208 20.7476 11.9576 20.7313 11.9921 20.7123C12.0357 20.7123 12.0587 20.7095 12.0817 20.7014C12.1139 20.7585 12.1599 20.8075 12.2243 20.8102C12.2771 20.8129 12.3116 20.7966 12.3392 20.7803C12.3691 20.8129 12.4059 20.8428 12.4611 20.8455C12.507 20.8455 12.5369 20.8374 12.5645 20.8265C12.5691 20.8265 12.5737 20.8238 12.5852 20.8238C12.6128 20.8483 12.645 20.8727 12.7025 20.8755C12.7829 20.8809 12.8519 20.8047 12.9002 20.7313C12.9071 20.7313 12.9163 20.7259 12.9232 20.7231C12.9554 20.7884 13.0013 20.8455 13.068 20.8483C13.1163 20.8483 13.1577 20.8292 13.1945 20.7993C13.2221 20.8319 13.2588 20.8591 13.3094 20.8619C13.3646 20.8646 13.4152 20.8319 13.4589 20.7857C13.4842 20.8075 13.5163 20.8265 13.5554 20.8265C13.5669 20.8265 13.5715 20.8292 13.5784 20.8319C13.6014 20.8455 13.629 20.8564 13.6727 20.8591C13.7371 20.8619 13.7945 20.8183 13.8405 20.7639C13.8612 20.7639 13.875 20.7694 13.9049 20.7721C13.9348 20.8102 13.9716 20.8455 14.0267 20.8537C14.0566 20.8863 14.0934 20.9135 14.1509 20.919C14.2015 20.9217 14.2382 20.9054 14.275 20.8809C14.3049 20.9081 14.3394 20.9326 14.3923 20.9353C14.4659 20.938 14.5302 20.8755 14.5785 20.8102C14.5785 20.8102 14.5831 20.8102 14.5854 20.8102C14.5992 20.8102 14.6153 20.8129 14.6429 20.8156C14.6705 20.8428 14.7027 20.8646 14.7486 20.8727C14.7808 20.9108 14.8176 20.9434 14.8774 20.9462C14.9188 20.9462 14.9533 20.9353 14.9854 20.9108C15.0176 20.9598 15.059 20.9951 15.1142 20.9978C15.1579 20.9978 15.1993 20.9761 15.236 20.9407C15.2659 20.987 15.305 21.0223 15.3533 21.0223C15.42 21.025 15.4774 20.9788 15.5257 20.9162C15.5257 20.9162 15.5257 20.9162 15.528 20.9162C15.5464 20.9217 15.5648 20.9271 15.6039 20.9271C15.6499 20.9271 15.6798 20.919 15.7051 20.9108C15.712 20.9108 15.7166 20.9054 15.728 20.9081C15.7717 20.9081 15.7993 20.9026 15.8246 20.8945C15.8315 20.8945 15.8384 20.889 15.8499 20.8918C15.8706 20.8918 15.8913 20.8918 15.9074 20.8863C15.9419 20.9815 15.9947 21.0685 16.0729 21.0713C16.1488 21.0767 16.2177 21.0006 16.2729 20.9135C16.2821 20.919 16.2936 20.9217 16.3074 20.9244C16.3396 20.9706 16.381 21.0114 16.4431 21.0142C16.5005 21.0169 16.5028 21.0223 16.5534 21.025C16.5833 21.0577 16.6201 21.0849 16.6753 21.0876C16.7327 21.0903 16.7764 21.0658 16.8155 21.0305C16.8408 21.0305 16.8546 21.0305 16.8684 21.0305C16.8822 21.0305 16.896 21.0305 16.9213 21.0305C16.9397 21.0305 16.9489 21.0332 16.958 21.0386C16.9787 21.0468 16.9994 21.0522 17.0408 21.055C17.05 21.055 17.0546 21.0577 17.0592 21.0604C17.0845 21.074 17.1121 21.0903 17.1581 21.0903C17.1949 21.0903 17.2155 21.0903 17.2339 21.0876C17.2454 21.0876 17.2569 21.0849 17.2799 21.0876C17.3489 21.0903 17.411 21.0359 17.4569 20.9706C17.4776 20.9815 17.5006 20.9897 17.5328 20.9924C17.5558 20.9924 17.5765 20.9924 17.5926 20.9897C17.6271 21.0794 17.68 21.1637 17.7558 21.1665C17.8156 21.1692 17.8616 21.1393 17.903 21.1012C17.9329 21.1012 17.9604 21.0849 17.988 21.0658C18.0202 21.1229 18.0639 21.1665 18.1214 21.1692C18.1881 21.1719 18.2478 21.1202 18.2961 21.0577C18.3168 21.0685 18.3421 21.0794 18.3743 21.0821C18.4226 21.0821 18.4616 21.0658 18.4984 21.0386C18.5283 21.074 18.5651 21.1012 18.6157 21.1039C18.6663 21.1066 18.7099 21.0821 18.7467 21.0495C18.7651 21.0685 18.7858 21.0849 18.8134 21.0957C18.8479 21.1637 18.8962 21.2236 18.9674 21.2263C19.0249 21.229 19.0686 21.2045 19.1077 21.1692C19.1376 21.1692 19.1675 21.1556 19.1927 21.1393C19.2249 21.1991 19.2686 21.2453 19.3284 21.248C19.3744 21.248 19.4181 21.2263 19.4571 21.1909C19.487 21.229 19.5238 21.2589 19.5698 21.2616L19.6893 21.2671C19.7583 21.2698 19.8158 21.2209 19.8618 21.1637C19.8963 21.1556 19.9284 21.1338 19.956 21.1066C19.9813 21.1338 20.0112 21.1529 20.0503 21.161C20.0802 21.1964 20.1193 21.2263 20.1767 21.2317L20.2986 21.2372C20.3561 21.2399 20.409 21.2018 20.4526 21.1529C20.4779 21.1773 20.5078 21.1937 20.5469 21.1937C20.5814 21.1937 20.6113 21.1855 20.6389 21.1692C20.671 21.2317 20.717 21.2834 20.7791 21.2861C20.8228 21.2861 20.8619 21.2671 20.8987 21.2345C20.9285 21.2807 20.9699 21.316 21.0182 21.3188C21.0964 21.3242 21.163 21.2535 21.2113 21.1828C21.2182 21.1828 21.2228 21.1828 21.2274 21.1801C21.2596 21.2535 21.3102 21.3242 21.3838 21.3269C21.4412 21.3296 21.4941 21.2888 21.5401 21.2372C21.5654 21.2616 21.5953 21.278 21.6321 21.278C21.6895 21.2807 21.7378 21.248 21.7769 21.21C21.8022 21.2345 21.8344 21.2508 21.8781 21.2535C21.9194 21.2535 21.9401 21.2535 21.9631 21.248C21.9723 21.248 21.9838 21.2453 22.0022 21.2453C22.0206 21.2453 22.0275 21.248 22.0367 21.2535C22.0574 21.2616 22.0781 21.2698 22.1218 21.2725C22.1333 21.2725 22.1402 21.2752 22.1471 21.278C22.17 21.2888 22.1953 21.2997 22.2413 21.3024L22.3241 21.3079C22.3586 21.3704 22.4022 21.4221 22.4712 21.4275C22.5287 21.4303 22.5793 21.3976 22.6207 21.3514C22.646 21.3732 22.6758 21.3895 22.7195 21.3895C22.8069 21.3949 22.8805 21.3024 22.931 21.2263C23.0759 21.1202 23.2207 20.6987 23.2782 20.1901C23.3426 19.6054 23.2667 19.124 23.1058 19.0968L23.1127 19.1131Z" fill="black"/>
</g>
<defs>
<clipPath id="clip0_412_516">
<rect width="24" height="24" fill="white" transform="translate(0 0.515625)"/>
</clipPath>
</defs>
</svg>
