<svg width="184" height="40" viewBox="0 0 184 40" fill="none" xmlns="http://www.w3.org/2000/svg">
<path d="M10.6067 17.1459L10.4456 12.8659C10.3488 10.2922 8.17542 8.11469 5.04275 8.23187C1.91007 8.34904 -0.0934943 10.6828 0.00336172 13.2565L0.52682 27.1663C0.542055 27.5711 0.782812 27.7938 1.1889 27.7786L3.01629 27.7103C3.42238 27.6951 3.64573 27.455 3.63049 27.0502L3.44984 22.2497C3.44004 21.9895 3.5829 21.9262 3.81712 21.9754C4.31567 22.1015 4.81313 22.1987 5.56729 22.1705C8.69997 22.0533 10.7035 19.7196 10.6067 17.1459ZM7.50301 17.262C7.5411 18.2741 6.8272 19.3723 5.46391 19.4233C4.10061 19.4743 3.30618 18.4325 3.2681 17.4204L3.10703 13.1404C3.06894 12.1283 3.78284 11.0301 5.14613 10.9791C6.50943 10.9281 7.30386 11.9699 7.34195 12.982L7.50301 17.262Z" fill="#1A1A1A"/>
<path d="M26.9057 16.5362L26.7446 12.2563C26.6478 9.68254 24.4744 7.50503 21.3418 7.6222C18.2091 7.73938 16.2055 10.0731 16.3024 12.6469L16.4635 16.9268C16.5603 19.5005 18.7336 21.678 21.8663 21.5609C24.999 21.4437 27.0026 19.1099 26.9057 16.5362ZM23.802 16.6523C23.8401 17.6644 23.1262 18.7626 21.7629 18.8136C20.3996 18.8646 19.6052 17.8228 19.5671 16.8107L19.4061 12.5308C19.368 11.5186 20.0819 10.4204 21.4452 10.3695C22.8085 10.3185 23.6029 11.3602 23.641 12.3724L23.802 16.6523Z" fill="#1A1A1A"/>
<path d="M43.2668 17.5749L42.8967 7.74264C42.8815 7.33778 42.6408 7.11511 42.2347 7.1303L40.6973 7.18781C40.2912 7.203 40.0679 7.44302 40.0831 7.84788L40.4532 17.6801C40.4651 17.9982 40.2407 18.2093 39.8926 18.2224C39.5445 18.2354 39.3049 18.0416 39.2929 17.7235L39.1384 13.6171C39.1231 13.2123 38.8824 12.9896 38.4763 13.0048L37.258 13.0504C36.8519 13.0655 36.6286 13.3056 36.6438 13.7104L36.7984 17.8168C36.8103 18.1349 36.5859 18.346 36.2378 18.3591C35.8898 18.3721 35.6501 18.1783 35.6381 17.8602L35.2681 8.02798C35.2529 7.62313 35.0121 7.40046 34.606 7.41565L33.0687 7.47315C32.6626 7.48834 32.4393 7.72837 32.4545 8.13323L32.8245 17.9655C32.8942 19.8163 33.9884 21.1074 36.1639 21.0261C36.8021 21.0022 37.4605 20.7459 37.9695 20.3793C38.0544 20.3183 38.2284 20.3117 38.3176 20.3663C38.8528 20.6938 39.5286 20.9002 40.1668 20.8763C42.3422 20.795 43.3364 19.4257 43.2668 17.5749Z" fill="#1A1A1A"/>
<path d="M59.4243 13.2058L59.3427 11.037C59.2458 8.46322 57.0725 6.2857 53.9398 6.40288C50.8071 6.52006 48.8036 8.85381 48.9004 11.4275L49.0615 15.7075C49.1584 18.2812 51.3317 20.4587 54.4644 20.3415C57.0459 20.245 58.6148 18.7094 59.1126 17.2718C59.192 17.0661 59.2627 16.6291 58.9059 16.4107L57.5088 15.5652C57.1822 15.3748 56.8352 15.4167 56.6441 15.7424C56.1278 16.6884 55.6373 17.5466 54.361 17.5943C52.9977 17.6453 52.2033 16.6035 52.1652 15.5914L52.1456 15.0708C52.138 14.8684 52.2496 14.7484 52.4527 14.7408L58.1959 14.526C59.0081 14.4956 59.4548 14.0155 59.4243 13.2058ZM56.2586 11.6736C56.2662 11.876 56.1546 11.996 55.9515 12.0036L52.3547 12.1382C52.1517 12.1457 52.0313 12.0344 52.0237 11.832L52.0041 11.3115C51.966 10.2993 52.6799 9.20112 54.0432 9.15013C55.4065 9.09913 56.2009 10.1409 56.239 11.153L56.2586 11.6736Z" fill="#1A1A1A"/>
<path d="M75.9865 8.01079C76.1765 7.65618 76.0764 7.31241 75.7776 7.09192C74.8512 6.40259 73.0234 5.68906 71.051 5.76284C67.9183 5.88002 65.9148 8.21377 66.0116 10.7875L66.3196 18.9714C66.3349 19.3763 66.5756 19.5989 66.9817 19.5837L68.8091 19.5154C69.2152 19.5002 69.4385 19.2602 69.4233 18.8553L69.1153 10.6714C69.0772 9.65927 69.7911 8.56108 71.1544 8.51009C72.2566 8.46886 73.2849 8.7779 74.4423 9.42963C74.798 9.61904 75.1428 9.51927 75.3607 9.13465L75.9865 8.01079Z" fill="#1A1A1A"/>
<path d="M91.9893 33.4517L92.2568 21.3583C92.2658 20.9532 92.0387 20.7167 91.6325 20.7077L89.8042 20.6675C89.3979 20.6586 89.1607 20.8849 89.1517 21.29L88.9706 29.4777C88.9482 30.4903 88.17 31.5441 86.8061 31.5142C85.4422 31.4842 84.7113 30.3971 84.7337 29.3845L84.9148 21.1968C84.9238 20.7918 84.6968 20.5552 84.2905 20.5463L82.4623 20.5061C82.056 20.4972 81.8187 20.7235 81.8098 21.1286L81.6286 29.3162C81.5717 31.8911 83.6112 34.1938 86.7453 34.2627C87.761 34.285 88.5212 34.0412 89.2847 33.6528C89.4021 33.5974 89.5478 33.5717 89.6884 33.7774C89.8007 33.9536 89.9729 34.0442 90.205 34.0493L91.3368 34.0742C91.7431 34.0831 91.9803 33.8567 91.9893 33.4517Z" fill="#1A1A1A"/>
<path d="M108.382 29.9045L108.477 25.6226C108.534 23.0476 106.494 20.745 103.36 20.6761C100.226 20.6072 98.0868 22.8179 98.0299 25.3929L97.722 39.309C97.7131 39.7141 97.9401 39.9506 98.3464 39.9595L100.175 39.9997C100.581 40.0087 100.818 39.7823 100.827 39.3773L100.933 34.5746C100.939 34.3142 101.086 34.2596 101.316 34.3225C101.807 34.478 102.297 34.6046 103.052 34.6212C106.186 34.6901 108.325 32.4794 108.382 29.9045ZM105.277 29.8362C105.255 30.8488 104.477 31.9027 103.113 31.8727C101.749 31.8427 101.018 30.7556 101.04 29.743L101.135 25.4611C101.157 24.4485 101.936 23.3946 103.299 23.4246C104.663 23.4546 105.394 24.5417 105.372 25.5543L105.277 29.8362Z" fill="#1A1A1A"/>
<path d="M135.069 14.9034C135.069 12.0964 132.659 10.852 129.873 10.7363C129.873 10.7363 127.957 10.7363 127.957 9.43402C127.957 8.971 128.421 8.16072 129.844 8.16072C130.424 8.16072 131.15 8.42117 131.789 9.02888C132.05 9.26039 132.398 9.31827 132.688 9.1157L133.936 8.2186C134.256 7.98709 134.256 7.61089 134.024 7.35044C133.037 6.13501 131.44 5.44048 129.844 5.44048C126.535 5.44048 124.938 7.52407 124.938 9.43402C124.938 11.7202 126.68 13.2829 129.815 13.4565C129.815 13.4565 131.963 13.3986 131.963 14.9034C131.963 15.7427 131.353 16.6398 129.844 16.6398C128.596 16.6398 127.435 15.7137 126.854 14.9324C126.651 14.643 126.332 14.5562 126.012 14.7588L124.851 15.5401C124.532 15.7716 124.474 16.1189 124.677 16.4372C125.548 17.8263 127.289 19.3889 129.844 19.3889C133.153 19.3889 135.069 17.4211 135.069 14.9034Z" fill="#1A1A1A"/>
<path d="M151.379 18.4629V10.2732C151.379 7.6977 149.289 5.44048 146.154 5.44048C145.4 5.44048 144.906 5.55624 144.413 5.70093C144.18 5.75881 144.035 5.70093 144.035 5.44048V0.636652C144.035 0.23151 143.803 0 143.397 0H141.568C141.162 0 140.929 0.23151 140.929 0.636652V18.4629C140.929 18.8681 141.162 19.0996 141.568 19.0996H143.397C143.803 19.0996 144.035 18.8681 144.035 18.4629V10.2732C144.035 9.26039 144.79 8.18966 146.154 8.18966C147.518 8.18966 148.273 9.26039 148.273 10.2732V18.4629C148.273 18.8681 148.505 19.0996 148.912 19.0996H150.74C151.147 19.0996 151.379 18.8681 151.379 18.4629Z" fill="#1A1A1A"/>
<path d="M167.69 14.5562V10.2732C167.69 7.6977 165.6 5.44048 162.465 5.44048C159.33 5.44048 157.24 7.6977 157.24 10.2732V14.5562C157.24 17.1317 159.33 19.3889 162.465 19.3889C165.6 19.3889 167.69 17.1317 167.69 14.5562ZM164.584 14.5562C164.584 15.569 163.829 16.6398 162.465 16.6398C161.1 16.6398 160.346 15.569 160.346 14.5562V10.2732C160.346 9.26039 161.1 8.18966 162.465 8.18966C163.829 8.18966 164.584 9.26039 164.584 10.2732V14.5562Z" fill="#1A1A1A"/>
<path d="M184 14.5562V10.2732C184 7.6977 181.91 5.44048 178.775 5.44048C175.64 5.44048 173.55 7.6977 173.55 10.2732V24.1928C173.55 24.5979 173.783 24.8294 174.189 24.8294H176.018C176.424 24.8294 176.656 24.5979 176.656 24.1928V19.3889C176.656 19.1285 176.801 19.0706 177.034 19.1285C177.527 19.2732 178.021 19.3889 178.775 19.3889C181.91 19.3889 184 17.1317 184 14.5562ZM180.894 14.5562C180.894 15.569 180.139 16.6398 178.775 16.6398C177.411 16.6398 176.656 15.569 176.656 14.5562V10.2732C176.656 9.26039 177.411 8.18966 178.775 8.18966C180.139 8.18966 180.894 9.26039 180.894 10.2732V14.5562Z" fill="#1A1A1A"/>
</svg>
