<svg width="171" height="21" viewBox="0 0 171 21" fill="none" xmlns="http://www.w3.org/2000/svg">
<path d="M155.783 13.8207L155.031 5.92803C154.89 4.44235 153.952 3.44727 152.209 3.59884C151.698 3.6433 151.182 3.87549 150.79 4.19044C150.725 4.24293 150.585 4.25505 150.511 4.21469C150.067 3.9725 149.515 3.83327 149.003 3.87773C147.261 4.0293 146.527 5.16988 146.668 6.65556L147.42 14.5482C147.451 14.8732 147.655 15.0428 147.98 15.0145L149.211 14.9074C149.537 14.8791 149.705 14.6772 149.674 14.3522L148.922 6.45954C148.897 6.20418 149.068 6.02552 149.346 6.00127C149.625 5.97702 149.826 6.12335 149.851 6.3787L150.457 12.7393C150.488 13.0643 150.691 13.2338 151.017 13.2055L151.992 13.1206C152.318 13.0923 152.486 12.8905 152.455 12.5655L151.849 6.2049C151.824 5.94955 151.995 5.77088 152.273 5.74663C152.552 5.72238 152.754 5.86871 152.778 6.12406L153.53 14.0167C153.561 14.3417 153.765 14.5113 154.09 14.483L155.321 14.3759C155.646 14.3476 155.814 14.1457 155.783 13.8207Z" fill="#1A1A1A"/>
<path d="M170.352 7.68488L170.186 5.94385C169.989 3.87783 168.144 2.21266 165.635 2.43092C163.126 2.64918 161.626 4.60536 161.823 6.67139L162.15 10.107C162.347 12.173 164.192 13.8382 166.701 13.62C168.769 13.4401 169.957 12.143 170.29 10.9671C170.344 10.7986 170.381 10.4443 170.084 10.2829L168.924 9.65821C168.653 9.51795 168.376 9.56541 168.238 9.83491C167.867 10.6161 167.513 11.3257 166.491 11.4146C165.399 11.5096 164.713 10.7033 164.636 9.89078L164.596 9.47293C164.581 9.31044 164.665 9.2095 164.827 9.19535L169.427 8.79521C170.078 8.73862 170.414 8.33487 170.352 7.68488ZM167.74 6.57794C167.756 6.74044 167.672 6.84137 167.509 6.85552L164.628 7.10611C164.466 7.12026 164.364 7.03549 164.348 6.87299L164.309 6.45515C164.231 5.64267 164.753 4.73121 165.845 4.63623C166.937 4.54125 167.623 5.34761 167.7 6.16009L167.74 6.57794Z" fill="#1A1A1A"/>
<path d="M8.60794 12.9431C8.60472 10.6811 6.66782 9.68095 4.42908 9.59059C4.42908 9.59059 2.89003 9.59259 2.88854 8.54324C2.888 8.17013 3.26018 7.51672 4.4028 7.51523C4.86918 7.51463 5.45245 7.72374 5.96616 8.21277C6.1763 8.39905 6.45619 8.44532 6.68915 8.28179L7.69083 7.5576C7.94708 7.37072 7.94664 7.06757 7.75979 6.85794C6.96556 5.87958 5.68222 5.32159 4.39968 5.32326C1.74133 5.32671 0.46118 7.00734 0.46337 8.54639C0.465992 10.3886 1.86692 11.646 4.38556 11.7826C4.38556 11.7826 6.11109 11.7337 6.11282 12.9463C6.11378 13.6226 5.62511 14.3461 4.41253 14.3477C3.40982 14.349 2.476 13.604 2.00872 12.975C1.84516 12.742 1.58855 12.6724 1.33228 12.8359L0.400417 13.4668C0.144175 13.6536 0.0979354 13.9335 0.261533 14.1898C0.962693 15.3082 2.36362 16.5656 4.41568 16.563C7.07404 16.5595 8.61083 14.9718 8.60794 12.9431Z" fill="#1A1A1A"/>
<path d="M23.6973 15.7917L23.6835 6.04441C23.683 5.71794 23.4962 5.53163 23.1697 5.53206L21.7006 5.53397C21.3742 5.53439 21.1879 5.72118 21.1883 6.04765L21.1977 12.6469C21.1989 13.4631 20.5938 14.3266 19.4978 14.3281C18.4019 14.3295 17.7943 13.4675 17.7932 12.6513L17.7838 6.05207C17.7833 5.72561 17.5965 5.5393 17.27 5.53972L15.8009 5.54163C15.4745 5.54206 15.2882 5.72885 15.2887 6.05531L15.2981 12.6546C15.301 14.7299 16.9826 16.5466 19.501 16.5434C20.3172 16.5423 20.9232 16.3316 21.529 16.0044C21.6222 15.9576 21.7388 15.9342 21.8556 16.0972C21.9491 16.237 22.0891 16.3068 22.2756 16.3066L23.1851 16.3054C23.5115 16.305 23.6978 16.1182 23.6973 15.7917Z" fill="#1A1A1A"/>
<path d="M38.7782 12.6241L38.7733 9.17286C38.7703 7.09747 37.0888 5.28078 34.5703 5.28405C32.0519 5.28733 30.3755 7.10838 30.3785 9.18376L30.3944 20.4002C30.3949 20.7266 30.5817 20.9129 30.9082 20.9125L32.3773 20.9106C32.7037 20.9102 32.89 20.7234 32.8896 20.3969L32.884 16.526C32.8837 16.3161 33.0003 16.2693 33.1869 16.3157C33.5835 16.4318 33.98 16.5245 34.5863 16.5238C37.1048 16.5205 38.7811 14.6994 38.7782 12.6241ZM36.2831 12.6273C36.2842 13.4435 35.6792 14.307 34.5832 14.3085C33.4872 14.3099 32.8797 13.4479 32.8785 12.6317L32.8736 9.18052C32.8724 8.36436 33.4775 7.50077 34.5735 7.49935C35.6695 7.49793 36.277 8.35994 36.2781 9.1761L36.2831 12.6273Z" fill="#1A1A1A"/>
<path d="M53.8611 10.9022L53.8586 9.15325C53.8556 7.07787 52.1741 5.26118 49.6556 5.26445C47.1372 5.26773 45.4608 7.08878 45.4638 9.16416L45.4687 12.6154C45.4717 14.6907 47.1532 16.5074 49.6716 16.5042C51.747 16.5015 53.0512 15.3105 53.4926 14.1673C53.5623 14.004 53.6318 13.6541 53.3517 13.4679L52.2547 12.7465C51.998 12.5836 51.7182 12.6072 51.5553 12.864C51.1133 13.6107 50.6945 14.2875 49.6685 14.2889C48.5725 14.2903 47.965 13.4283 47.9638 12.6121L47.9632 12.1924C47.963 12.0291 48.0561 11.9357 48.2194 11.9355L52.8365 11.9295C53.4894 11.9287 53.862 11.5551 53.8611 10.9022ZM51.3641 9.57624C51.3643 9.73947 51.2712 9.83287 51.1079 9.83308L48.2164 9.83683C48.0531 9.83705 47.9597 9.74389 47.9595 9.58066L47.9589 9.16092C47.9577 8.34476 48.5628 7.48117 49.6588 7.47975C50.7548 7.47832 51.3623 8.34034 51.3635 9.1565L51.3641 9.57624Z" fill="#1A1A1A"/>
<path d="M69.2909 7.19773C69.4538 6.91769 69.3834 6.63796 69.15 6.45171C68.4262 5.86968 66.9796 5.24194 65.3939 5.244C62.8754 5.24728 61.1991 7.06833 61.202 9.14371L61.2114 15.743C61.2119 16.0694 61.3987 16.2557 61.7252 16.2553L63.1943 16.2534C63.5207 16.253 63.707 16.0662 63.7066 15.7397L63.6972 9.14047C63.696 8.32431 64.3011 7.46072 65.397 7.4593C66.2832 7.45815 67.0997 7.73691 68.01 8.29538C68.29 8.45825 68.5697 8.38793 68.7559 8.08455L69.2909 7.19773Z" fill="#1A1A1A"/>
<path d="M84.0386 15.7133L84.0292 9.11405C84.0263 7.03867 82.3447 5.22198 79.8263 5.22525C79.22 5.22604 78.8237 5.31983 78.4274 5.43694C78.241 5.48382 78.1243 5.43733 78.124 5.22746L78.1185 1.35653C78.118 1.03006 77.9312 0.843754 77.6047 0.844178L76.1356 0.846087C75.8092 0.846511 75.6229 1.0333 75.6234 1.35977L75.6438 15.7242C75.6443 16.0507 75.8311 16.237 76.1576 16.2366L77.6266 16.2346C77.9531 16.2342 78.1394 16.0474 78.1389 15.721L78.1295 9.12172C78.1284 8.30556 78.7334 7.44197 79.8294 7.44055C80.9254 7.43912 81.5329 8.30113 81.5341 9.11729L81.5435 15.7165C81.544 16.043 81.7308 16.2293 82.0572 16.2289L83.5263 16.227C83.8528 16.2266 84.0391 16.0398 84.0386 15.7133Z" fill="#1A1A1A"/>
<path d="M99.117 10.8434L99.1145 9.09445C99.1116 7.01907 97.43 5.20238 94.9116 5.20565C92.3932 5.20892 90.7168 7.02998 90.7197 9.10536L90.7247 12.5566C90.7276 14.6319 92.4092 16.4486 94.9276 16.4454C97.003 16.4427 98.3071 15.2517 98.7486 14.1085C98.8183 13.9452 98.8878 13.5953 98.6077 13.4091L97.5106 12.6876C97.2539 12.5248 96.9741 12.5484 96.8112 12.8052C96.3692 13.5519 95.9505 14.2287 94.9244 14.2301C93.8285 14.2315 93.2209 13.3695 93.2198 12.5533L93.2192 12.1336C93.2189 11.9703 93.3121 11.8769 93.4753 11.8767L98.0925 11.8707C98.7454 11.8699 99.118 11.4963 99.117 10.8434ZM96.62 9.51743C96.6203 9.68067 96.5271 9.77406 96.3639 9.77427L93.4723 9.77803C93.3091 9.77824 93.2157 9.68509 93.2155 9.52186L93.2149 9.10212C93.2137 8.28595 93.8188 7.42237 94.9147 7.42094C96.0107 7.41952 96.6183 8.28153 96.6194 9.09769L96.62 9.51743Z" fill="#1A1A1A"/>
<path d="M114.547 7.13893C114.71 6.85889 114.639 6.57915 114.406 6.3929C113.682 5.81087 112.236 5.18314 110.65 5.1852C108.131 5.18847 106.455 7.00953 106.458 9.08491L106.467 15.6842C106.468 16.0106 106.655 16.1969 106.981 16.1965L108.45 16.1946C108.777 16.1942 108.963 16.0074 108.963 15.6809L108.953 9.08167C108.952 8.2655 109.557 7.40192 110.653 7.40049C111.539 7.39934 112.356 7.67811 113.266 8.23658C113.546 8.39945 113.826 8.32913 114.012 8.02574L114.547 7.13893Z" fill="#1A1A1A"/>
<path d="M129.29 12.5064L129.285 9.05525C129.282 6.97987 127.601 5.16317 125.082 5.16645C122.564 5.16972 120.887 6.99077 120.89 9.06616L120.895 12.5174C120.898 14.5927 122.58 16.4094 125.098 16.4062C127.617 16.4029 129.293 14.5818 129.29 12.5064ZM126.795 12.5097C126.796 13.3258 126.191 14.1894 125.095 14.1909C123.999 14.1923 123.392 13.3303 123.39 12.5141L123.386 9.06291C123.384 8.24675 123.989 7.38317 125.085 7.38174C126.181 7.38032 126.789 8.24233 126.79 9.05849L126.795 12.5097Z" fill="#1A1A1A"/>
</svg>
